<svg width="462" height="235" viewBox="0 0 462 235" fill="none" xmlns="http://www.w3.org/2000/svg">
<g opacity="0.15">
<path fill-rule="evenodd" clip-rule="evenodd" d="M223.133 0.255778C223.129 0.265765 223.126 0.275885 231.046 2.7553C238.965 5.23472 238.962 5.2451 238.959 5.25561L238.952 5.27727L238.937 5.32292C238.927 5.35438 238.916 5.3879 238.904 5.42345C238.88 5.49456 238.852 5.57377 238.821 5.66091C238.758 5.83521 238.68 6.04105 238.584 6.27697C238.392 6.74904 238.127 7.34014 237.77 8.03867C237.055 9.43742 235.974 11.2554 234.368 13.4027C231.151 17.7026 225.869 23.2642 217.28 29.4169C201.661 40.6066 175.042 53.8018 129.688 65.0144L150.499 88.3241L148.322 93.2225L140.739 89.8521C148.322 93.2225 148.318 93.2309 148.314 93.2395L148.307 93.257L148.29 93.2933C148.279 93.3181 148.267 93.3441 148.254 93.3713C148.243 93.3963 148.23 93.4223 148.217 93.4493C148.202 93.481 148.186 93.514 148.17 93.5483C148.108 93.6755 148.034 93.8208 147.947 93.9828C147.774 94.3068 147.549 94.6972 147.264 95.1428C146.692 96.0352 145.883 97.1427 144.765 98.3766C142.518 100.858 139.096 103.772 134.011 106.473C127.027 110.183 117.072 113.409 102.918 114.703L117.057 127.018C118.648 127.011 120.239 127.004 121.832 126.996L121.918 126.996C124.461 126.984 127.007 126.972 129.554 126.961L137.887 126.927V234.106H88.8945V194.058C85.6531 192.738 82.6126 190.876 80.0243 189.094C74.8735 185.55 69.6318 180.962 65.0392 176.575C60.4106 172.153 56.2563 167.757 53.2699 164.48C51.7724 162.837 50.5583 161.464 49.7135 160.496C49.2908 160.012 48.96 159.628 48.7316 159.362C48.6174 159.228 48.5288 159.125 48.4671 159.052L48.3949 158.967L48.3742 158.942L48.3655 158.932C48.3647 158.931 48.364 158.93 54.7066 153.579L48.364 158.93L37.1755 145.669L54.5218 145.283C77.454 144.772 91.0908 140.455 98.7021 136.707C99.6638 136.233 100.533 135.767 101.315 135.317L57.9751 97.5688L81.6054 98.5532C106.089 99.5733 119.388 95.448 126.225 91.8162C127.551 91.1119 128.647 90.4197 129.546 89.7757L98.5463 55.0532L112.403 52.0053C164.81 40.4773 192.872 26.4871 207.615 15.925C214.964 10.6596 218.981 6.26334 221.079 3.45993C222.129 2.0556 222.71 1.03559 222.992 0.484233C223.133 0.207709 223.201 0.0457341 223.216 0.00849265C223.219 0.000955759 223.22 -0.00158507 223.219 0.000951944C223.218 0.00472015 223.212 0.0196924 223.203 0.046137C223.195 0.068248 223.184 0.0983507 223.171 0.136602C223.165 0.155726 223.158 0.176883 223.15 0.200092L223.139 0.236444L223.133 0.255778ZM72.533 160.671C73.8016 161.952 75.1325 163.264 76.5036 164.574C80.8065 168.684 85.3233 172.594 89.4333 175.422C93.9685 178.543 96.4989 179.271 97.193 179.271H105.491V217.509H121.29V143.596C120.191 143.601 119.092 143.606 117.992 143.611C117.707 143.878 117.401 144.156 117.073 144.443C114.68 146.533 111.122 149.091 106.035 151.596C98.4983 155.308 87.7146 158.855 72.533 160.671Z" fill="#4C4C4C"/>
<path fill-rule="evenodd" clip-rule="evenodd" d="M159.593 195.867H97.1875V179.27H159.593V195.867Z" fill="#4C4C4C"/>
<path fill-rule="evenodd" clip-rule="evenodd" d="M231.046 98.1504H140.739V81.5534H231.046V98.1504Z" fill="#4C4C4C"/>
<path fill-rule="evenodd" clip-rule="evenodd" d="M151.286 143.559H129.583V126.962H167.9L167.792 234.106H129.583V217.51H151.212L151.286 143.559Z" fill="#4C4C4C"/>
<path fill-rule="evenodd" clip-rule="evenodd" d="M231.046 143.559H159.593V126.962H231.046V143.559Z" fill="#4C4C4C"/>
<path fill-rule="evenodd" clip-rule="evenodd" d="M0 217.508H97.1874V234.105H0V217.508Z" fill="#4C4C4C"/>
<path fill-rule="evenodd" clip-rule="evenodd" d="M190.152 159.09H231.045V175.687H206.749V234.106H159.501V217.509H190.152V159.09Z" fill="#4C4C4C"/>
<path fill-rule="evenodd" clip-rule="evenodd" d="M223.041 5.25561C223.038 5.2451 223.035 5.23472 230.954 2.7553C238.874 0.275885 238.871 0.265765 238.867 0.255778L238.861 0.236444L238.85 0.200092C238.842 0.176883 238.835 0.155726 238.829 0.136602C238.816 0.0983509 238.805 0.0682481 238.797 0.0461372C238.786 0.0152784 238.78 4.15687e-05 238.78 8.3841e-08C238.78 -1.77976e-05 238.781 0.00282463 238.784 0.00849279C238.799 0.0457343 238.867 0.20771 239.008 0.484233C239.29 1.03559 239.871 2.0556 240.921 3.45993C243.019 6.26334 247.036 10.6596 254.385 15.925C269.128 26.4871 297.19 40.4773 349.597 52.0053L363.454 55.0532L332.454 89.7757C333.354 90.4197 334.449 91.1119 335.775 91.8162C342.612 95.448 355.911 99.5733 380.395 98.5532L404.025 97.5688L360.685 135.317C361.467 135.767 362.336 136.233 363.298 136.707C370.909 140.455 384.546 144.772 407.478 145.283L424.825 145.669L413.636 158.93L407.293 153.579C413.636 158.93 413.635 158.931 413.634 158.932L413.632 158.935L413.605 158.967L413.533 159.052C413.471 159.125 413.383 159.228 413.268 159.362C413.04 159.628 412.709 160.012 412.287 160.496C411.442 161.464 410.228 162.837 408.73 164.48C405.744 167.757 401.589 172.153 396.961 176.575C392.368 180.962 387.127 185.55 381.976 189.094C379.387 190.876 376.347 192.738 373.106 194.058V234.106H324.113V126.953L344.993 126.974L359.082 114.703C344.929 113.409 334.973 110.183 327.989 106.473C322.904 103.772 319.482 100.858 317.235 98.3766C316.117 97.1427 315.308 96.0352 314.736 95.1428C314.451 94.6972 314.226 94.3068 314.053 93.9828C313.966 93.8208 313.892 93.6755 313.83 93.5483C313.799 93.4847 313.771 93.4257 313.746 93.3713C313.733 93.3441 313.721 93.3181 313.71 93.2933L313.693 93.257L313.686 93.2395C313.682 93.2309 313.678 93.2225 321.261 89.8521L313.678 93.2225L311.501 88.3241L332.312 65.0144C286.958 53.8018 260.339 40.6066 244.72 29.4169C236.131 23.2642 230.849 17.7026 227.632 13.4027C226.026 11.2554 224.945 9.43742 224.23 8.03867C223.873 7.34014 223.608 6.74904 223.416 6.27697C223.32 6.04105 223.242 5.83521 223.179 5.66091C223.148 5.57377 223.12 5.49456 223.096 5.42345C223.084 5.3879 223.073 5.35438 223.063 5.32292L223.048 5.27727L223.041 5.25561ZM340.71 143.567V217.509H356.509V179.271H364.807C365.501 179.271 368.031 178.543 372.567 175.422C376.677 172.594 381.193 168.684 385.496 164.574C386.867 163.264 388.198 161.952 389.467 160.671C374.285 158.855 363.502 155.308 355.965 151.596C350.878 149.091 347.32 146.533 344.927 144.443C344.582 144.141 344.261 143.85 343.965 143.57L340.71 143.567Z" fill="#B47700"/>
<path fill-rule="evenodd" clip-rule="evenodd" d="M302.407 179.27H364.813V195.867H302.407V179.27Z" fill="#B47700"/>
<path fill-rule="evenodd" clip-rule="evenodd" d="M230.954 81.5534H321.261V98.1504H230.954V81.5534Z" fill="#B47700"/>
<path fill-rule="evenodd" clip-rule="evenodd" d="M294.1 126.962H332.417V143.559H310.714L310.788 217.51H332.417V234.106H294.208L294.1 126.962Z" fill="#B47700"/>
<path fill-rule="evenodd" clip-rule="evenodd" d="M230.954 126.962H302.407V143.559H230.954V126.962Z" fill="#B47700"/>
<path fill-rule="evenodd" clip-rule="evenodd" d="M462 234.105H364.812V217.508H462V234.105Z" fill="#B47700"/>
<path fill-rule="evenodd" clip-rule="evenodd" d="M230.954 159.09H271.847V217.509H302.498V234.106H255.25V175.687H230.954V159.09Z" fill="#B47700"/>
<path fill-rule="evenodd" clip-rule="evenodd" d="M263.548 234.105H229.82V217.508H263.548V234.105Z" fill="#B47700"/>
<path fill-rule="evenodd" clip-rule="evenodd" d="M229.82 234.105H196.087V217.508H229.82V234.105Z" fill="#4C4C4C"/>
</g>
</svg>
