<svg width="684" height="342" viewBox="0 0 684 342" fill="none" xmlns="http://www.w3.org/2000/svg">
<g opacity="0.1">
<path fill-rule="evenodd" clip-rule="evenodd" d="M333.967 0.500618C333.964 0.510481 333.961 0.520539 341.88 2.99996C349.799 5.47938 349.796 5.48982 349.793 5.50045L349.786 5.52267L349.77 5.57055C349.759 5.60399 349.747 5.64048 349.734 5.67997C349.708 5.75895 349.676 5.84994 349.639 5.95268C349.565 6.15817 349.47 6.41048 349.349 6.70748C349.106 7.30171 348.762 8.07344 348.285 9.00584C347.331 10.8723 345.852 13.371 343.608 16.3702C339.116 22.3739 331.604 30.3238 319.193 39.2152C295.887 55.9121 255.236 75.9833 184.509 92.8225L218.012 130.35L215.835 135.248L208.252 131.878C215.835 135.248 215.832 135.257 215.828 135.265L215.82 135.283L215.803 135.321C215.796 135.335 215.79 135.349 215.783 135.364C215.777 135.377 215.771 135.39 215.764 135.404C215.737 135.462 215.706 135.528 215.671 135.6C215.6 135.745 215.513 135.916 215.409 136.111C215.199 136.502 214.919 136.991 214.554 137.561C213.824 138.702 212.759 140.163 211.26 141.819C208.248 145.144 203.553 149.173 196.429 152.957C185.196 158.924 168.143 164.174 142.413 165.328L171.727 190.86C174.595 190.848 177.462 190.834 180.33 190.821L180.349 190.821C184.137 190.803 187.927 190.785 191.719 190.769L200.052 190.735V341.35H135.519V283.303C130.322 281.582 125.2 278.566 120.669 275.448C113.297 270.375 105.715 263.749 98.9887 257.323C92.2265 250.864 86.1456 244.429 81.766 239.624C79.5718 237.216 77.7945 235.206 76.5606 233.793C75.9434 233.085 75.4616 232.527 75.1308 232.141C74.9654 231.948 74.8378 231.798 74.7499 231.695L74.6479 231.575L74.6115 231.531L74.6088 231.528C74.6078 231.527 74.607 231.526 80.9497 226.175L74.607 231.526L63.4186 218.265L80.7648 217.879C115.161 217.112 135.931 210.63 147.809 204.78C151.519 202.953 154.381 201.178 156.537 199.64L96.956 147.746L120.586 148.73C157.298 150.26 177.73 144.097 188.643 138.3C192.758 136.114 195.569 133.955 197.433 132.219L153.322 82.8114L167.178 79.7634C245.063 62.6314 287.139 41.7628 309.527 25.7234C320.7 17.7193 326.947 10.9346 330.319 6.42742C332.007 4.17121 332.986 2.47049 333.507 1.4514C333.768 0.941004 333.916 0.598401 333.981 0.438999C334.013 0.359187 334.025 0.324853 334.021 0.337907C334.019 0.341833 334.016 0.350046 334.012 0.3626C334.009 0.370879 334.006 0.381047 334.002 0.393116C333.997 0.408301 333.991 0.426492 333.984 0.447721L333.973 0.481843L333.967 0.500618ZM98.7656 233.543C102.203 237.178 106.196 241.256 110.453 245.322C116.89 251.471 123.747 257.419 130.078 261.776C136.835 266.425 141.467 268.172 143.817 268.172H152.116V324.753H183.455V207.403C182.462 207.408 181.469 207.413 180.476 207.417L180.304 207.418C177.86 207.43 175.415 207.441 172.969 207.452C172.311 208.116 171.531 208.858 170.614 209.658C167.338 212.521 162.362 216.113 155.142 219.669C143.184 225.559 125.205 231.285 98.7656 233.543Z" fill="#4C4C4C"/>
<path fill-rule="evenodd" clip-rule="evenodd" d="M236.151 284.768H143.809V268.172H236.151V284.768Z" fill="#4C4C4C"/>
<path fill-rule="evenodd" clip-rule="evenodd" d="M341.88 140.176H208.252V123.579H341.88V140.176Z" fill="#4C4C4C"/>
<path fill-rule="evenodd" clip-rule="evenodd" d="M227.844 207.367H191.745V190.77H244.458L244.306 341.351H191.745V324.754H227.726L227.844 207.367Z" fill="#4C4C4C"/>
<path fill-rule="evenodd" clip-rule="evenodd" d="M341.88 207.367H236.151V190.77H341.88V207.367Z" fill="#4C4C4C"/>
<path fill-rule="evenodd" clip-rule="evenodd" d="M0 324.752H143.809V341.349H0V324.752Z" fill="#4C4C4C"/>
<path fill-rule="evenodd" clip-rule="evenodd" d="M285.351 238.31H341.878V254.907H301.948V341.35H236.015V324.753H285.351V238.31Z" fill="#4C4C4C"/>
<path fill-rule="evenodd" clip-rule="evenodd" d="M333.832 5.50045C333.829 5.48982 333.825 5.47938 341.745 2.99996C349.664 0.520539 349.661 0.510481 349.658 0.500618L349.652 0.481843L349.641 0.447721C349.634 0.426492 349.628 0.408301 349.623 0.393116C349.613 0.362745 349.606 0.344421 349.604 0.337907C349.599 0.324853 349.611 0.359187 349.644 0.438999C349.709 0.598401 349.857 0.941004 350.117 1.4514C350.638 2.47049 351.618 4.17121 353.306 6.42742C356.678 10.9346 362.925 17.7193 374.098 25.7234C396.486 41.7628 438.562 62.6314 516.447 79.7634L530.303 82.8114L486.192 132.219C488.056 133.955 490.866 136.114 494.982 138.3C505.895 144.097 526.327 150.26 563.039 148.73L586.669 147.746L527.088 199.64C529.244 201.178 532.106 202.953 535.816 204.78C547.694 210.63 568.464 217.112 602.86 217.879L620.206 218.265L609.018 231.526L602.675 226.175C609.018 231.526 609.017 231.527 609.016 231.528L609.013 231.531L608.977 231.575L608.875 231.695C608.787 231.798 608.659 231.948 608.494 232.141C608.163 232.527 607.681 233.085 607.064 233.793C605.83 235.206 604.053 237.216 601.859 239.624C597.479 244.429 591.398 250.864 584.636 257.323C577.91 263.749 570.328 270.375 562.956 275.448C558.425 278.566 553.303 281.582 548.106 283.303V341.35H483.573V190.761L511.978 190.79L541.212 165.328C515.482 164.174 498.429 158.924 487.196 152.957C480.072 149.173 475.376 145.144 472.365 141.819C470.865 140.163 469.801 138.702 469.071 137.561C468.706 136.991 468.426 136.502 468.216 136.111C468.112 135.916 468.025 135.745 467.954 135.6C467.919 135.528 467.888 135.462 467.86 135.404C467.847 135.374 467.834 135.347 467.822 135.321L467.805 135.283L467.797 135.265C467.793 135.257 467.79 135.248 475.373 131.878L467.79 135.248L465.612 130.35L499.116 92.8225C428.389 75.9833 387.738 55.9121 364.432 39.2152C352.021 30.3238 344.508 22.3739 340.017 16.3702C337.773 13.371 336.294 10.8723 335.339 9.00583C334.863 8.07344 334.519 7.30171 334.276 6.70748C334.155 6.41048 334.06 6.15817 333.986 5.95268C333.949 5.84994 333.917 5.75895 333.891 5.67997C333.877 5.64048 333.865 5.60399 333.855 5.57055L333.839 5.52267L333.832 5.50045ZM510.591 207.386L500.17 207.375V324.753H531.509V268.172H539.808C542.158 268.172 546.79 266.425 553.547 261.776C559.878 257.419 566.735 251.471 573.172 245.322C577.429 241.256 581.422 237.178 584.859 233.543C558.42 231.285 540.441 225.559 528.483 219.669C521.263 216.113 516.287 212.521 513.01 209.658C512.064 208.831 511.262 208.067 510.591 207.386Z" fill="#B47700"/>
<path fill-rule="evenodd" clip-rule="evenodd" d="M447.474 268.172H539.816V284.768H447.474V268.172Z" fill="#B47700"/>
<path fill-rule="evenodd" clip-rule="evenodd" d="M341.745 123.579H475.373V140.176H341.745V123.579Z" fill="#B47700"/>
<path fill-rule="evenodd" clip-rule="evenodd" d="M439.167 190.77H491.879V207.367H455.781L455.899 324.754H491.879V341.351H439.319L439.167 190.77Z" fill="#B47700"/>
<path fill-rule="evenodd" clip-rule="evenodd" d="M341.745 190.77H447.474V207.367H341.745V190.77Z" fill="#B47700"/>
<path fill-rule="evenodd" clip-rule="evenodd" d="M683.625 341.349H539.816V324.752H683.625V341.349Z" fill="#B47700"/>
<path fill-rule="evenodd" clip-rule="evenodd" d="M341.745 238.31H398.273V324.753H447.609V341.35H381.676V254.907H341.745V238.31Z" fill="#B47700"/>
<path fill-rule="evenodd" clip-rule="evenodd" d="M389.974 341.349H340.066V324.752H389.974V341.349Z" fill="#B47700"/>
<path fill-rule="evenodd" clip-rule="evenodd" d="M340.066 341.349H290.151V324.752H340.066V341.349Z" fill="#4C4C4C"/>
</g>
</svg>
