<svg width="113" height="94" viewBox="0 0 113 94" fill="none" xmlns="http://www.w3.org/2000/svg">
<path d="M56.4726 1C56.4726 1 53.8715 9.30795 27.9093 15.0188L34.3995 22.2884C34.3995 22.2884 32.3229 26.9609 19.8616 26.4417L27.9093 33.4511C27.9093 33.4511 25.0532 37.6045 13.3713 37.8647C13.3713 37.8647 20.3807 46.1727 23.756 46.1727V55.5189H31.6742V33.3871C30.4201 33.3923 29.1673 33.3988 27.9132 33.4041" stroke="#323232" stroke-width="5.14456" stroke-miterlimit="10"/>
<path d="M23.7548 46.1729H39.008" stroke="#323232" stroke-width="5.14456" stroke-miterlimit="10"/>
<path d="M34.3995 22.2886H56.4726" stroke="#323232" stroke-width="5.14456" stroke-miterlimit="10"/>
<path d="M31.673 33.3872H39.008L38.9858 55.5191H31.673" stroke="#323232" stroke-width="5.14456" stroke-miterlimit="10"/>
<path d="M39.0081 33.3872H56.4727" stroke="#323232" stroke-width="5.14456" stroke-miterlimit="10"/>
<path d="M23.7548 55.519H0" stroke="#323232" stroke-width="5.14456" stroke-miterlimit="10"/>
<path d="M38.9857 55.5188H48.5059V41.2397H56.4726" stroke="#323232" stroke-width="5.14456" stroke-miterlimit="10"/>
<path d="M56.4504 1C56.4504 1 59.0515 9.30795 85.0137 15.0188L78.5235 22.2884C78.5235 22.2884 80.6002 26.9609 93.0614 26.4417L85.0137 33.4511C85.0137 33.4511 87.8698 37.6045 99.5517 37.8647C99.5517 37.8647 92.5423 46.1727 89.167 46.1727V55.5189H81.2488C81.2488 48.1421 81.2488 40.7639 81.2488 33.3871C82.5003 33.3884 83.7531 33.3897 85.0046 33.391" stroke="#F09E00" stroke-width="5.14456" stroke-miterlimit="10"/>
<path d="M89.1683 46.1729H73.915" stroke="#F09E00" stroke-width="5.14456" stroke-miterlimit="10"/>
<path d="M78.5235 22.2886H56.4504" stroke="#F09E00" stroke-width="5.14456" stroke-miterlimit="10"/>
<path d="M81.25 33.3872H73.915L73.9373 55.5191H81.25" stroke="#F09E00" stroke-width="5.14456" stroke-miterlimit="10"/>
<path d="M73.9151 33.3872H56.4504" stroke="#F09E00" stroke-width="5.14456" stroke-miterlimit="10"/>
<path d="M89.1683 55.519H112.923" stroke="#F09E00" stroke-width="5.14456" stroke-miterlimit="10"/>
<path d="M73.9373 55.5188H64.4171V41.2397H56.4504" stroke="#F09E00" stroke-width="5.14456" stroke-miterlimit="10"/>
<path d="M56.1732 55.519H64.4171" stroke="#F09E00" stroke-width="5.14456" stroke-miterlimit="10"/>
<path d="M47.928 55.519H56.1732" stroke="#323232" stroke-width="5.14456" stroke-miterlimit="10"/>
<path d="M21.4126 69.0445C21.5656 69.1008 21.6741 69.1531 21.7395 69.2015C21.8036 69.2498 21.8428 69.2904 21.8546 69.3218C21.8664 69.3545 21.8585 69.3806 21.8298 69.4002C21.801 69.4199 21.7709 69.4303 21.7395 69.4303C21.5944 69.446 21.4387 69.4591 21.274 69.4669C21.1092 69.4748 20.9379 69.4787 20.76 69.4787C20.5508 69.4787 20.3389 69.4722 20.1258 69.4604C19.9126 69.4486 19.7152 69.4277 19.5334 69.4002C19.3516 69.3728 19.1947 69.3375 19.0626 69.2969C18.9292 69.2564 18.8351 69.208 18.7788 69.1518C18.6899 69.055 18.5958 68.9543 18.4951 68.8497C18.3944 68.7451 18.2858 68.6038 18.1681 68.4273C18.0517 68.2507 17.9223 68.0284 17.781 67.763C17.6398 67.4975 17.4855 67.1549 17.3155 66.7364C17.1546 66.7364 16.9794 66.7403 16.7898 66.7482C16.6002 66.756 16.4027 66.7665 16.1974 66.7782C15.9921 66.79 15.7907 66.807 15.5932 66.8266C15.3958 66.8462 15.2127 66.8737 15.044 66.9051C14.7615 67.3563 14.415 67.7957 14.0043 68.222C13.5937 68.6496 13.0536 69.0563 12.3854 69.4421C12.2886 69.4983 12.1997 69.5323 12.1199 69.5454C12.0388 69.5572 11.9787 69.5532 11.9381 69.5336C11.8976 69.5127 11.8832 69.4787 11.8963 69.4303C11.9081 69.3819 11.9591 69.3218 12.0467 69.2485C12.5305 68.8615 12.9229 68.4718 13.2249 68.0768C13.527 67.6819 13.7663 67.3157 13.9442 66.977C13.8147 66.9927 13.7363 67.0071 13.7088 67.0189C13.68 67.0306 13.6264 67.045 13.5453 67.0607C13.3361 67.1013 13.1752 67.1274 13.0615 67.1392C12.949 67.1509 12.8483 67.1497 12.7594 67.1326C12.6705 67.117 12.5776 67.0921 12.4808 67.0607C12.3841 67.028 12.2978 66.9901 12.2206 66.9456C12.1434 66.9012 12.0859 66.8567 12.0454 66.8122C12.0048 66.7678 11.997 66.7259 12.0218 66.6854C12.0624 66.6135 12.1683 66.5363 12.3422 66.4552C12.5148 66.3742 12.8117 66.3349 13.2302 66.3349C13.3348 66.3349 13.4551 66.3336 13.5924 66.3284C13.7297 66.3245 13.935 66.3022 14.2083 66.2617C14.53 65.5202 14.7903 64.8494 14.9877 64.2491C15.1852 63.6489 15.3343 63.131 15.435 62.6968C15.5357 62.2614 15.5998 61.9135 15.6285 61.652C15.6573 61.3904 15.6665 61.2231 15.6586 61.1511C15.6508 61.1106 15.6324 61.0622 15.6037 61.006C15.5749 60.9497 15.5488 60.8909 15.5252 60.8307C15.5004 60.7706 15.4808 60.7104 15.4651 60.649C15.4494 60.5888 15.4455 60.5339 15.4533 60.4855C15.469 60.4293 15.5461 60.3848 15.6835 60.3521C15.8208 60.3194 15.9816 60.3037 16.1673 60.3037C16.3282 60.3037 16.4955 60.3194 16.6682 60.3521C16.8408 60.3848 17.0003 60.441 17.1455 60.5208C17.2985 60.6097 17.3953 60.6882 17.4358 60.7562C17.4763 60.8242 17.4881 60.8857 17.4724 60.938C17.4567 60.9903 17.428 61.0347 17.3874 61.0713C17.3469 61.108 17.3233 61.142 17.3155 61.1747C17.3155 61.1995 17.2972 61.2675 17.2606 61.38C17.224 61.4924 17.1782 61.6297 17.122 61.7906C17.0657 61.9514 17.0095 62.1228 16.9533 62.3045C16.897 62.4863 16.8447 62.6537 16.7963 62.8054C16.8604 62.9989 16.9428 63.2304 17.0435 63.4998C17.1442 63.7705 17.2527 64.0503 17.3704 64.3393C17.4868 64.6297 17.6084 64.9095 17.7327 65.1789C17.8569 65.4483 17.972 65.6758 18.0766 65.8615C18.2047 65.8458 18.346 65.8275 18.499 65.8066C18.652 65.787 18.8076 65.7648 18.9645 65.7399C19.1215 65.7164 19.2679 65.6915 19.4052 65.668C19.5425 65.6445 19.6589 65.6157 19.7557 65.583C19.8682 65.5424 19.9793 65.5333 20.0879 65.5529C20.1964 65.5738 20.301 65.6078 20.4017 65.6562C20.5024 65.7046 20.5953 65.7608 20.6803 65.8249C20.7653 65.889 20.8398 65.9505 20.9039 66.0067C20.968 66.0629 21.0124 66.127 21.0373 66.2002C21.0621 66.2722 21.053 66.3388 21.0137 66.399C20.9732 66.4592 20.8934 66.5076 20.7718 66.5442C20.6515 66.5808 20.4776 66.5939 20.2526 66.586C20.1232 66.5782 20.0002 66.5742 19.8839 66.5742C19.7675 66.5742 19.6563 66.5742 19.5517 66.5742C19.2941 66.5742 19.0718 66.5782 18.8874 66.586C18.7017 66.5939 18.5487 66.6056 18.4284 66.6226C18.4846 66.7194 18.5356 66.8018 18.5801 66.8698C18.6245 66.9378 18.669 67.0032 18.7134 67.0633C18.7579 67.1235 18.8037 67.1823 18.8521 67.2386C18.9005 67.2948 18.9567 67.3589 19.0208 67.4321C19.2143 67.6662 19.4052 67.8637 19.5949 68.0245C19.7845 68.1854 19.9754 68.3266 20.1689 68.4469C20.3625 68.5672 20.5613 68.6745 20.7666 68.7673C20.9706 68.8654 21.1864 68.9556 21.4126 69.0445ZM15.3094 66.1806C15.4141 66.1806 15.5409 66.1741 15.69 66.1623C15.8391 66.1505 15.9986 66.1362 16.1673 66.1205C16.336 66.1048 16.506 66.0865 16.6747 66.0655C16.8434 66.0459 17.0016 66.0237 17.1455 65.9988C17.105 65.9021 17.05 65.7491 16.982 65.5398C16.914 65.3306 16.8434 65.1096 16.7702 64.8755C16.6982 64.6414 16.6289 64.4165 16.5649 64.1994C16.5008 63.9823 16.4485 63.8123 16.4079 63.692C16.3831 63.7639 16.3295 63.8973 16.2445 64.0909C16.1595 64.2844 16.0627 64.5015 15.9542 64.7434C15.8456 64.9854 15.7345 65.2351 15.622 65.4928C15.5108 65.7504 15.4062 65.9792 15.3094 66.1806Z" fill="#323232"/>
<path d="M28.4036 64.4884C28.6508 64.7709 28.8404 65.1109 28.9725 65.5098C29.1046 65.9086 29.17 66.4055 29.17 67.0019C29.17 67.0659 29.1674 67.1274 29.1634 67.1836C29.1595 67.2399 29.1569 67.3 29.1569 67.3654C29.1334 67.946 28.9856 68.4168 28.7136 68.7791C28.4429 69.1413 28.0179 69.3545 27.4412 69.4198C27.0619 69.4682 26.6278 69.4918 26.1361 69.4918C25.8222 69.4918 25.5018 69.4813 25.1749 69.4617C24.8493 69.4421 24.538 69.4068 24.2438 69.3584C23.9495 69.31 23.6815 69.2498 23.4395 69.1766C23.1976 69.1034 23.0041 69.0158 22.8589 68.9111C22.6575 68.766 22.5568 68.6169 22.5568 68.4639C22.5411 68.3436 22.5647 68.222 22.6287 68.1017C22.6928 67.9813 22.7661 67.8663 22.8458 67.7577C22.9269 67.6492 23.0067 67.5446 23.0878 67.4439C23.1688 67.3432 23.2211 67.249 23.2447 67.1601C23.2695 67.0712 23.297 66.9783 23.3297 66.8829C23.3624 66.7861 23.3938 66.6998 23.4265 66.6226C23.4591 66.5468 23.4892 66.4814 23.5167 66.4291C23.5441 66.3768 23.5716 66.3506 23.5952 66.3506C23.6357 66.3506 23.6632 66.4225 23.6802 66.5677C23.6958 66.705 23.6945 66.8593 23.6736 67.0333C23.654 67.2072 23.6435 67.3824 23.6435 67.559C23.6435 67.7277 23.6671 67.8584 23.7155 67.9513C23.7638 68.0441 23.8645 68.1422 24.0175 68.2468C24.1862 68.3593 24.4308 68.4364 24.7486 68.477C25.0663 68.5175 25.3907 68.5371 25.7215 68.5371C25.9948 68.5371 26.2407 68.5293 26.4591 68.5136C26.6761 68.4979 26.8291 68.4809 26.9181 68.4652C27.0462 68.4325 27.1679 68.3972 27.2803 68.3567C27.3928 68.3161 27.4922 68.2455 27.5759 68.1448C27.6609 68.0441 27.7315 67.9055 27.7877 67.7276C27.8439 67.5511 27.8766 67.3131 27.8845 67.0149C27.8923 66.7168 27.8897 66.4592 27.8779 66.2421C27.8662 66.025 27.8361 65.8328 27.7877 65.668C27.7393 65.5032 27.6752 65.3541 27.5942 65.2208C27.5131 65.0874 27.4085 64.9527 27.2803 64.8153C27.1992 64.7264 27.1208 64.6663 27.0449 64.6336C26.9678 64.6009 26.8579 64.5525 26.7128 64.4884C26.5598 64.4243 26.3963 64.3851 26.2237 64.3733C26.0497 64.3616 25.8837 64.3537 25.7228 64.3498C25.562 64.3459 25.4168 64.3354 25.2873 64.3197C25.1579 64.304 25.0611 64.2596 24.997 64.1863C24.9565 64.1458 24.9369 64.0778 24.9369 63.981C24.9369 63.8842 24.9656 63.8163 25.0219 63.7757C25.0454 63.76 25.0886 63.7339 25.1487 63.6973C25.2089 63.6606 25.269 63.6227 25.3305 63.5822C25.3907 63.5416 25.4495 63.5024 25.5057 63.4619C25.562 63.4213 25.6025 63.3899 25.626 63.3651C25.7071 63.284 25.7987 63.1559 25.9046 62.978C26.0092 62.8015 26.1099 62.6158 26.2067 62.4222C26.3034 62.2287 26.3832 62.0495 26.4486 61.8847C26.5127 61.72 26.5454 61.6049 26.5454 61.5408C26.5454 61.38 26.4996 61.2688 26.4068 61.2087C26.3139 61.1485 26.1949 61.1184 26.0497 61.1184C25.9203 61.1184 25.7804 61.1367 25.6274 61.1733C25.4743 61.21 25.3253 61.2544 25.1801 61.3067C25.035 61.359 24.9042 61.41 24.7878 61.4584C24.6714 61.5068 24.5838 61.5434 24.5276 61.567C24.5511 61.6873 24.5825 61.801 24.6178 61.9057C24.6544 62.0103 24.6845 62.1044 24.708 62.1894C24.7329 62.2744 24.7499 62.3424 24.7629 62.3947C24.7747 62.4471 24.7695 62.4811 24.7446 62.4981C24.6963 62.5308 24.6113 62.5085 24.4909 62.4314C24.3706 62.3555 24.1692 62.1881 23.8868 61.9305C23.7822 61.8259 23.6932 61.7396 23.6213 61.6703C23.5494 61.6023 23.4801 61.5434 23.416 61.495C23.3519 61.4466 23.2891 61.4009 23.229 61.3564C23.1688 61.312 23.0982 61.2583 23.0171 61.193C22.9361 61.1367 22.9204 61.0543 22.9687 60.9458C23.0171 60.8373 23.0995 60.73 23.2159 60.6254C23.3323 60.5208 23.4631 60.4306 23.6082 60.3534C23.7534 60.2775 23.8815 60.2422 23.9953 60.2501C24.0515 60.2579 24.1039 60.305 24.1522 60.3887C24.2006 60.4737 24.2451 60.5849 24.2856 60.7209C24.4059 60.7209 24.5393 60.7196 24.6845 60.7143C24.8296 60.7104 24.946 60.6999 25.035 60.6843C25.1631 60.6594 25.341 60.6241 25.5672 60.5757C25.7921 60.5273 26.0223 60.4789 26.2564 60.4306C26.4904 60.3822 26.7036 60.3416 26.8972 60.3102C27.0907 60.2776 27.2188 60.2658 27.2842 60.2736C27.3483 60.2893 27.4608 60.3338 27.6229 60.407C27.7838 60.4789 27.9407 60.5679 28.0924 60.6725C28.2441 60.7771 28.367 60.8856 28.4638 60.9994C28.5593 61.1119 28.575 61.2126 28.5122 61.3015C28.4481 61.3904 28.3866 61.4467 28.3265 61.4702C28.2663 61.495 28.2049 61.5147 28.1408 61.5303C28.0767 61.546 28.0087 61.5709 27.9368 61.6023C27.8649 61.635 27.7877 61.699 27.7079 61.7958C27.6269 61.8926 27.517 62.0417 27.3758 62.2431C27.2345 62.4445 27.0933 62.6458 26.9534 62.8472C26.8122 63.0486 26.6853 63.2265 26.5728 63.3795C26.4604 63.5325 26.395 63.6135 26.3793 63.6214C26.3636 63.6214 26.4041 63.624 26.4996 63.6279C26.5964 63.6319 26.6761 63.6423 26.7415 63.658C27.1522 63.7221 27.5 63.8398 27.7851 64.0085C28.0702 64.1746 28.2768 64.3367 28.4036 64.4884Z" fill="#323232"/>
<path d="M38.5229 66.5078C38.5229 66.5798 38.5203 66.6491 38.5163 66.7131C38.5124 66.7772 38.5098 66.8426 38.5098 66.9067C38.5098 67.1159 38.5176 67.2872 38.5333 67.4206C38.549 67.554 38.566 67.673 38.5817 67.7776C38.5974 67.8823 38.6157 67.9895 38.6366 68.098C38.6563 68.2066 38.6706 68.3413 38.6785 68.5034C38.6785 68.6407 38.655 68.7754 38.6066 68.9088C38.5582 69.0422 38.4954 69.1612 38.4196 69.2658C38.3424 69.3704 38.2561 69.4528 38.1593 69.513C38.0626 69.5731 37.9697 69.6032 37.8808 69.6032C37.7997 69.6032 37.7134 69.5705 37.6205 69.5064C37.5277 69.4424 37.4453 69.3547 37.3734 69.2462C37.3015 69.1377 37.2465 69.0069 37.2099 68.8539C37.1733 68.7009 37.1681 68.5361 37.1916 68.3583C37.2243 68.1647 37.2596 67.8587 37.3002 67.4402C37.3407 67.0218 37.3682 66.5575 37.3852 66.0501C37.393 65.8814 37.3995 65.6813 37.4035 65.4525C37.4074 65.2223 37.41 64.9791 37.41 64.7215V63.912V63.1261C37.0478 63.6256 36.6803 64.0951 36.3102 64.5332C35.9401 64.9726 35.5805 65.3793 35.2353 65.7533C34.8887 66.1286 34.567 66.4647 34.2689 66.7628C33.9707 67.061 33.7131 67.3186 33.496 67.5357C33.4149 67.5998 33.3168 67.6913 33.2004 67.8077C33.0841 67.9241 32.9611 68.0536 32.8317 68.1948C32.7022 68.336 32.574 68.4812 32.4446 68.6303C32.3151 68.7794 32.2026 68.918 32.1059 69.0474C31.8156 69.4581 31.5736 69.6634 31.3814 69.6634C31.1892 69.6634 31.0113 69.4659 30.8492 69.071C30.7681 68.8944 30.7066 68.7493 30.6622 68.6355C30.6177 68.523 30.5955 68.4223 30.5955 68.3334C30.5955 68.2445 30.6255 68.1582 30.6857 68.0732C30.7458 67.9882 30.8452 67.8823 30.9812 67.7528C31.0218 67.7123 31.0558 67.6403 31.0845 67.5357C31.1133 67.4311 31.1395 67.3016 31.163 67.1486C31.1709 67.0519 31.1748 66.9472 31.1748 66.8348C31.1748 66.7223 31.1748 66.5968 31.1748 66.4608C31.1748 66.1469 31.1709 65.7899 31.163 65.391C31.1552 64.9922 31.1434 64.5816 31.1264 64.1579C31.1107 63.7355 31.0898 63.3105 31.0662 62.8828C31.0427 62.4565 31.0179 62.0537 30.9943 61.6745C30.9865 61.5215 30.9642 61.379 30.9276 61.2456C30.891 61.1122 30.8531 60.9919 30.8125 60.8833C30.772 60.7748 30.738 60.678 30.7092 60.593C30.6805 60.508 30.6713 60.4374 30.6792 60.3812C30.687 60.3328 30.7393 60.3027 30.8361 60.2909C30.9329 60.2792 31.0519 60.2805 31.1931 60.2975C31.3343 60.3132 31.4873 60.3432 31.6521 60.3877C31.8169 60.4322 31.9686 60.4832 32.1059 60.5394C32.2432 60.5956 32.357 60.6597 32.4498 60.7329C32.5427 60.8049 32.5884 60.8781 32.5884 60.95C32.5806 61.0063 32.5557 61.0586 32.5165 61.1069C32.476 61.1553 32.4354 61.2142 32.3962 61.2822C32.3557 61.3502 32.3177 61.4313 32.2811 61.5241C32.2445 61.617 32.2262 61.736 32.2262 61.8811C32.234 62.0184 32.238 62.157 32.238 62.2983C32.238 62.4395 32.238 62.586 32.238 62.739C32.238 62.8841 32.238 63.0306 32.238 63.1797C32.238 63.3288 32.2419 63.4792 32.2497 63.6322V63.7172C32.2497 63.9748 32.251 64.2246 32.2563 64.4665C32.2602 64.7084 32.2628 64.9464 32.2628 65.1792C32.2628 65.4852 32.2589 65.769 32.251 66.0305C32.2432 66.2921 32.2223 66.5366 32.1909 66.7615C32.1909 66.9224 32.2066 67.0335 32.2393 67.0937C32.272 67.1539 32.3151 67.1839 32.3727 67.1839C32.4367 67.1839 32.51 67.1499 32.5897 67.0806C32.6695 67.0126 32.7427 66.9538 32.8068 66.9054C32.952 66.7851 33.1991 66.5588 33.5496 66.2293C33.9001 65.8984 34.295 65.4957 34.7344 65.021C35.1738 64.5463 35.625 64.0205 36.0879 63.4438C36.5508 62.8684 36.968 62.2695 37.3381 61.6496C37.2975 61.4404 37.2518 61.2743 37.1995 61.154C37.1471 61.0337 37.1014 60.9343 37.0608 60.8585C37.0203 60.7826 36.9902 60.7199 36.9706 60.6715C36.951 60.6231 36.9523 60.5669 36.9771 60.5028C37.0334 60.3655 37.1498 60.2975 37.3276 60.2975C37.4401 60.2975 37.5525 60.321 37.6663 60.3694C37.7788 60.4178 37.8716 60.474 37.9436 60.5381C38.2417 60.6911 38.4509 60.8886 38.5726 61.1305C38.6929 61.3724 38.7543 61.6104 38.7543 61.8432C38.7543 62.0446 38.7217 62.2224 38.6576 62.3754L38.6327 62.484C38.5922 62.6697 38.5726 62.7978 38.5726 62.8711V63.1248C38.5726 63.3026 38.57 63.5393 38.566 63.8375C38.5621 64.1356 38.5595 64.4416 38.5595 64.7555C38.5516 65.0053 38.5477 65.2851 38.5477 65.5951C38.5477 65.905 38.5386 66.2097 38.5229 66.5078Z" fill="#323232"/>
<path d="M49.0487 69.0445C49.2017 69.1008 49.3102 69.1531 49.3743 69.2015C49.4384 69.2498 49.4776 69.2904 49.4894 69.3218C49.5011 69.3545 49.4933 69.3806 49.4645 69.4002C49.4357 69.4199 49.4057 69.4303 49.3743 69.4303C49.2291 69.446 49.0748 69.4591 48.9087 69.4669C48.744 69.4748 48.5726 69.4787 48.3948 69.4787C48.1856 69.4787 47.9737 69.4722 47.7606 69.4604C47.5474 69.4486 47.3499 69.4277 47.1682 69.4002C46.9864 69.3715 46.8295 69.3375 46.6974 69.2969C46.564 69.2564 46.4698 69.208 46.4136 69.1518C46.3247 69.055 46.2305 68.9543 46.1298 68.8497C46.0291 68.7451 45.9206 68.6038 45.8029 68.4273C45.6865 68.2507 45.557 68.0284 45.4158 67.763C45.2746 67.4975 45.1203 67.1549 44.9503 66.7364C44.7894 66.7364 44.6142 66.7403 44.4246 66.7482C44.2349 66.756 44.0375 66.7665 43.8322 66.7782C43.6268 66.79 43.4255 66.807 43.228 66.8266C43.0305 66.8462 42.8474 66.8737 42.6787 66.9051C42.3963 67.3563 42.0497 67.7957 41.6391 68.222C41.2285 68.6496 40.6884 69.0563 40.0201 69.4421C39.9234 69.4983 39.8344 69.5323 39.7547 69.5454C39.6736 69.5572 39.6134 69.5532 39.5729 69.5336C39.5324 69.5127 39.518 69.4787 39.5311 69.4303C39.5428 69.3819 39.5938 69.3218 39.6814 69.2485C40.1653 68.8615 40.5576 68.4718 40.8597 68.0768C41.1618 67.6819 41.4011 67.3157 41.5789 66.977C41.4495 66.9927 41.371 67.0071 41.3436 67.0189C41.3148 67.0306 41.2612 67.045 41.1801 67.0607C40.9709 67.1013 40.81 67.1274 40.6962 67.1392C40.5838 67.1509 40.4831 67.1497 40.3941 67.1326C40.3052 67.117 40.2124 67.0921 40.1156 67.0607C40.0188 67.028 39.9325 66.9901 39.8554 66.9456C39.7782 66.9012 39.7207 66.8567 39.6801 66.8122C39.6396 66.7678 39.6318 66.7259 39.6566 66.6854C39.6971 66.6135 39.8031 66.5363 39.977 66.4552C40.1496 66.3742 40.4465 66.3349 40.8649 66.3349C40.9696 66.3349 41.0899 66.3336 41.2272 66.3284C41.3645 66.3245 41.5698 66.3022 41.8431 66.2617C42.1648 65.5202 42.425 64.8494 42.6225 64.2491C42.82 63.6489 42.9691 63.131 43.0698 62.6968C43.1704 62.2614 43.2345 61.9135 43.2633 61.652C43.2921 61.3904 43.3012 61.2231 43.2934 61.1511C43.2855 61.1106 43.2672 61.0622 43.2384 61.006C43.2097 60.9497 43.1835 60.8909 43.16 60.8307C43.1351 60.7706 43.1155 60.7104 43.0998 60.649C43.0841 60.5888 43.0802 60.5339 43.0881 60.4855C43.1038 60.4293 43.1809 60.3848 43.3182 60.3521C43.4555 60.3194 43.6164 60.3037 43.8021 60.3037C43.9629 60.3037 44.1303 60.3194 44.3029 60.3521C44.4756 60.3848 44.6351 60.441 44.7803 60.5208C44.9333 60.6097 45.03 60.6882 45.0706 60.7562C45.1111 60.8242 45.1229 60.8857 45.1072 60.938C45.0915 60.9903 45.0627 61.0347 45.0222 61.0713C44.9816 61.108 44.9581 61.142 44.9503 61.1747C44.9503 61.1995 44.932 61.2675 44.8953 61.38C44.8587 61.4924 44.8129 61.6297 44.7567 61.7906C44.7005 61.9514 44.6442 62.1228 44.588 62.3045C44.5318 62.4863 44.4795 62.6537 44.4311 62.8054C44.4952 62.9989 44.5776 63.2304 44.6782 63.4998C44.7789 63.7705 44.8875 64.0503 45.0052 64.3393C45.1216 64.6297 45.2432 64.9095 45.3674 65.1789C45.4917 65.4483 45.6067 65.6758 45.7114 65.8615C45.8395 65.8458 45.9807 65.8275 46.1337 65.8066C46.2867 65.787 46.4424 65.7648 46.5993 65.7399C46.7562 65.7164 46.9027 65.6915 47.04 65.668C47.1773 65.6445 47.2937 65.6157 47.3905 65.583C47.5029 65.5424 47.6141 65.5333 47.7226 65.5529C47.8312 65.5738 47.9358 65.6078 48.0365 65.6562C48.1372 65.7046 48.23 65.7608 48.3137 65.8249C48.3987 65.889 48.4733 65.9505 48.5373 66.0067C48.6014 66.0629 48.6459 66.127 48.6707 66.2002C48.6956 66.2722 48.6864 66.3388 48.6459 66.399C48.6053 66.4592 48.5256 66.5076 48.4039 66.5442C48.2836 66.5808 48.1097 66.5939 47.8848 66.586C47.7553 66.5782 47.6324 66.5742 47.516 66.5742C47.3996 66.5742 47.2885 66.5742 47.1838 66.5742C46.9262 66.5742 46.7039 66.5782 46.5195 66.586C46.3338 66.5939 46.1808 66.6056 46.0605 66.6226C46.1167 66.7194 46.1678 66.8018 46.2122 66.8698C46.2567 66.9378 46.3011 67.0032 46.3456 67.0633C46.3901 67.1235 46.4358 67.1823 46.4842 67.2386C46.5326 67.2948 46.5888 67.3589 46.6529 67.4321C46.8465 67.6662 47.0374 67.8637 47.227 68.0245C47.4166 68.1854 47.6075 68.3266 47.8011 68.4469C47.9946 68.5672 48.1934 68.6745 48.3987 68.7673C48.6066 68.8654 48.8224 68.9556 49.0487 69.0445ZM42.9455 66.1806C43.0501 66.1806 43.177 66.1741 43.3261 66.1623C43.4751 66.1505 43.6347 66.1362 43.8034 66.1205C43.9721 66.1048 44.1421 66.0865 44.3108 66.0655C44.4795 66.0459 44.6377 66.0237 44.7816 65.9988C44.741 65.9021 44.6861 65.7491 44.6181 65.5398C44.5501 65.3306 44.4795 65.1096 44.4062 64.8755C44.3343 64.6414 44.265 64.4165 44.2009 64.1994C44.1369 63.9823 44.0845 63.8123 44.044 63.692C44.0192 63.7639 43.9655 63.8973 43.8805 64.0909C43.7955 64.2844 43.6988 64.5015 43.5902 64.7434C43.4817 64.9854 43.3705 65.2351 43.2581 65.4928C43.1469 65.7504 43.0423 65.9792 42.9455 66.1806Z" fill="#323232"/>
<path d="M61.5792 60.6099C61.7244 60.7145 61.8408 60.8192 61.9297 60.9238C62.0186 61.0284 62.0814 61.1278 62.1167 61.2193C62.1533 61.3122 62.169 61.3972 62.1651 61.473C62.1612 61.5502 62.1468 61.6116 62.1232 61.66C62.0984 61.7084 62.067 61.7803 62.0265 61.8771C61.9859 61.9739 61.9441 62.0863 61.8996 62.2158C61.8552 62.3453 61.8186 62.4878 61.7911 62.6447C61.7623 62.8017 61.7492 62.9651 61.7492 63.1338C61.7414 63.2541 61.7375 63.3836 61.7375 63.5209C61.7375 63.6582 61.7375 63.7955 61.7375 63.9315C61.7375 64.4468 61.7518 64.9646 61.7793 65.4851C61.8068 66.0043 61.8421 66.4816 61.8826 66.9171C61.8983 67.0217 61.9153 67.1119 61.931 67.1891C61.9467 67.2662 61.9611 67.3382 61.9729 67.4062C61.9846 67.4742 61.9925 67.5435 61.9964 67.6115C62.0003 67.6795 62.0029 67.754 62.0029 67.8351C62.0029 67.8992 62.0003 67.9685 61.9964 68.0404C61.9925 68.1123 61.9859 68.1973 61.9781 68.2941C61.9624 68.4393 61.9336 68.5818 61.8931 68.723C61.8525 68.8643 61.8002 68.9924 61.7362 69.1101C61.6721 69.2265 61.5975 69.322 61.5125 69.3939C61.4275 69.4658 61.3334 69.5024 61.2288 69.5024C61.132 69.5024 61.0378 69.4684 60.945 69.3991C60.8521 69.3311 60.7711 69.2357 60.7031 69.1153C60.6351 68.995 60.5828 68.8512 60.5461 68.6864C60.5095 68.5217 60.5004 68.3425 60.5161 68.1489C60.5566 67.7226 60.588 67.2048 60.6128 66.5967C60.6364 65.9886 60.6495 65.3426 60.6495 64.6573C60.6495 64.2702 60.6429 63.8923 60.6311 63.5209C60.6194 63.1508 60.6011 62.8004 60.5762 62.4695C60.5605 62.3087 60.5082 62.1792 60.4193 62.0824C60.3304 61.9857 60.2427 61.9006 60.1538 61.8287C60.1381 61.813 60.1054 61.7947 60.0571 61.7738C60.0087 61.7542 59.9341 61.7333 59.8347 61.7136C59.734 61.694 59.6059 61.6757 59.449 61.6587C59.292 61.643 59.0932 61.6352 58.8526 61.6352C58.7807 61.6352 58.7062 61.6352 58.6303 61.6352C58.5545 61.6352 58.4721 61.6391 58.3832 61.6469C58.3426 61.6548 58.2903 61.6587 58.2262 61.6587C58.1622 61.6587 58.0902 61.6587 58.0092 61.6587C57.9294 61.6587 57.8444 61.6587 57.7568 61.6587C57.6678 61.6587 57.5685 61.6666 57.456 61.6823L57.4194 61.8274C57.3788 61.9399 57.3566 62.1099 57.3527 62.3348C57.3488 62.561 57.3461 62.7742 57.3461 62.9756V63.3378C57.3461 63.4189 57.3461 63.5876 57.3461 63.8452C57.3461 64.1029 57.3501 64.4076 57.3579 64.758C57.3658 65.1085 57.3736 65.4825 57.3814 65.8814C57.3893 66.2802 57.4011 66.6608 57.4181 67.023C57.4338 67.3617 57.4586 67.6455 57.49 67.8743C57.5227 68.1045 57.5345 68.2797 57.5266 68.4C57.5109 68.6093 57.4468 68.8054 57.3383 68.9859C57.2284 69.1677 57.0846 69.2579 56.9054 69.2579C56.8152 69.2579 56.7145 69.2278 56.5994 69.1677C56.4844 69.1075 56.3719 69.0081 56.2581 68.8721C56.2097 68.808 56.1757 68.7335 56.1548 68.6485C56.1352 68.5635 56.1247 68.4733 56.1247 68.3765C56.1247 68.1908 56.147 67.9986 56.1914 67.7959C56.2359 67.5945 56.266 67.4258 56.2817 67.2885C56.2973 67.1917 56.3117 67.0491 56.3235 66.8595C56.3353 66.6699 56.3418 66.3822 56.3418 65.9951C56.3418 65.6734 56.3392 65.3164 56.3353 64.9254C56.3313 64.5344 56.3209 64.146 56.3052 63.7589C56.2973 63.364 56.2869 63.0292 56.2751 62.7559C56.2633 62.4826 56.249 62.3204 56.2333 62.272C56.2006 62.1517 56.1783 62.0471 56.1666 61.9582C56.1548 61.8693 56.1443 61.7816 56.1365 61.6927C55.8619 61.7006 55.5859 61.7123 55.3113 61.7293C55.0367 61.745 54.7712 61.7594 54.5162 61.7712C54.2612 61.783 54.0232 61.7973 53.8009 61.813C53.5786 61.8287 53.3824 61.8418 53.2124 61.8496C53.1967 61.9137 53.1837 61.987 53.1758 62.0667C53.168 62.1478 53.164 62.2315 53.164 62.3204C53.164 62.4094 53.1653 62.5545 53.1706 62.7559C53.1745 62.9573 53.181 63.2005 53.1889 63.4869C53.1967 63.7733 53.2033 64.0898 53.2072 64.435C53.2111 64.7816 53.2137 65.1438 53.2137 65.523C53.2137 65.8539 53.2111 66.1913 53.2072 66.5378C53.2033 66.8844 53.1994 67.2087 53.1954 67.5108C53.1915 67.8129 53.1837 68.0705 53.1719 68.2836C53.1601 68.4968 53.1418 68.6367 53.1183 68.7008C53.0699 68.8303 52.994 68.948 52.8907 69.0578C52.7874 69.1664 52.6802 69.2579 52.5677 69.3298C52.4566 69.4017 52.3506 69.4554 52.2513 69.4868C52.1519 69.5194 52.0812 69.5234 52.0407 69.4985C51.9923 69.475 51.8995 69.3939 51.7622 69.2566C51.6249 69.1193 51.4797 68.9663 51.3267 68.7976C51.1737 68.6289 51.039 68.4693 50.9213 68.3203C50.8049 68.1712 50.7461 68.0731 50.7461 68.0247C50.7461 67.9763 50.7827 67.9528 50.8546 67.9528C50.9187 67.9528 50.9971 67.9567 51.09 67.9646C51.1828 67.9724 51.277 67.9763 51.3738 67.9763C51.4627 67.9763 51.5425 67.9724 51.6157 67.9646C51.6876 67.9567 51.7569 67.9319 51.821 67.8926C51.8851 67.8521 51.94 67.7462 51.9845 67.5722C52.0289 67.3996 52.0656 67.1891 52.093 66.9432C52.1218 66.6974 52.1414 66.4293 52.1532 66.1403C52.1649 65.85 52.1715 65.5597 52.1715 65.2707C52.1715 64.9568 52.1676 64.6508 52.1597 64.3526C52.1519 64.0545 52.1453 63.7851 52.1414 63.5431C52.1375 63.3012 52.1309 63.0985 52.1231 62.9324C52.1152 62.7677 52.1113 62.6565 52.1113 62.6003C52.1113 62.48 52.1048 62.3662 52.093 62.2616C52.0812 62.157 52.0669 62.0523 52.0512 61.9477C51.8825 61.9634 51.7269 61.9817 51.5856 62.0026C51.4444 62.0223 51.2848 62.0327 51.1083 62.0327C50.9304 62.0327 50.7722 62.0131 50.631 61.9726C50.4898 61.932 50.3878 61.8928 50.3224 61.8523C50.2256 61.796 50.1511 61.7333 50.0987 61.6653C50.0464 61.5973 50.0098 61.5319 49.9902 61.4717C49.9706 61.4116 49.9614 61.3606 49.9667 61.32C49.9706 61.2795 49.9771 61.2559 49.985 61.2481C49.9928 61.2403 50.053 61.2324 50.1667 61.2246C50.2792 61.2167 50.4231 61.2062 50.5957 61.1945C50.7683 61.1827 50.9684 61.1723 51.1933 61.1644C51.4182 61.1566 51.6484 61.1448 51.8825 61.1278C51.8106 60.9185 51.7412 60.7433 51.6772 60.6021C51.6131 60.4608 51.5961 60.3706 51.6288 60.3301C51.6536 60.2895 51.7582 60.2856 51.9426 60.3183C52.1283 60.351 52.3271 60.4033 52.5403 60.4752C52.7534 60.5472 52.947 60.6282 53.1209 60.7172C53.2935 60.8061 53.389 60.8858 53.4047 60.9591C53.4047 61.0153 53.4007 61.0559 53.3929 61.0794C53.5537 61.0716 53.7682 61.0598 54.0337 61.0428C54.2991 61.0271 54.5934 61.0088 54.9164 60.9879C55.2381 60.9682 55.5833 60.946 55.9495 60.9212C56.3157 60.8976 56.6805 60.8728 57.0427 60.8492C57.405 60.8257 57.7542 60.7995 58.0876 60.7708C58.4224 60.7433 58.7258 60.7119 59.0004 60.6805C59.3143 60.64 59.5601 60.5825 59.738 60.5053C59.9145 60.4295 60.0361 60.3785 60.1002 60.3536C60.2767 60.2895 60.4507 60.2568 60.6194 60.2568C60.7567 60.2568 60.9031 60.283 61.0601 60.3353C61.2222 60.3902 61.3935 60.4818 61.5792 60.6099Z" fill="#323232"/>
<path d="M69.6152 62.9546C69.5903 62.8095 69.5903 62.663 69.6152 62.5139C69.6387 62.3649 69.6518 62.2184 69.6518 62.0732C69.6518 61.9281 69.623 61.7908 69.5668 61.6626C69.5106 61.5345 69.385 61.4128 69.1928 61.3004C69.0555 61.2114 68.8972 61.1513 68.7155 61.1186C68.5337 61.0859 68.3428 61.0702 68.1414 61.0702C67.8027 61.0702 67.4823 61.099 67.1802 61.1552C66.8781 61.2115 66.6584 61.2598 66.5211 61.3004C66.3681 61.3331 66.2073 61.3945 66.0372 61.4874C65.8686 61.5802 65.709 61.711 65.5599 61.8797C65.4108 62.0484 65.2827 62.2563 65.1728 62.5009C65.0643 62.7467 64.9976 63.0383 64.9741 63.3757C64.9505 63.7301 64.9375 64.0479 64.9375 64.3291C64.9375 64.7554 64.961 65.1399 65.0094 65.4812C65.0578 65.8225 65.1258 66.1507 65.2147 66.4646C65.3272 66.883 65.471 67.2309 65.6436 67.5081C65.8162 67.7854 66.0006 68.0011 66.1929 68.1528C66.4178 68.3294 66.6584 68.4549 66.9121 68.5268C67.1658 68.5988 67.4261 68.6354 67.6915 68.6354C67.974 68.6354 68.2538 68.6027 68.5311 68.5386C68.8083 68.4746 69.0672 68.3974 69.3039 68.3085C69.5419 68.2195 69.7512 68.1319 69.9317 68.043C70.1121 67.9541 70.252 67.8861 70.3488 67.8377C70.3972 67.8141 70.443 67.8076 70.4874 67.8194C70.5319 67.8312 70.5737 67.8377 70.6143 67.8377C70.7346 67.8377 70.8013 67.9018 70.8144 68.0312C70.8261 68.1607 70.7241 68.2967 70.5057 68.4419C70.4011 68.5059 70.2233 68.5988 69.9735 68.7191C69.7237 68.8394 69.4321 68.9584 69.0973 69.0761C68.7625 69.1925 68.4082 69.2932 68.0341 69.3782C67.6601 69.4632 67.2953 69.505 66.9409 69.505C66.7068 69.505 66.4871 69.4828 66.2818 69.4383C66.0765 69.3939 65.8895 69.3154 65.7195 69.2029C65.454 69.0343 65.1951 68.7675 64.9466 68.4052C64.6968 68.043 64.4758 67.6075 64.2823 67.1001C64.0966 66.5927 63.9475 66.0213 63.835 65.3844C63.7226 64.7475 63.6742 63.9786 63.6899 63.0763C63.6977 62.7376 63.7566 62.4132 63.8651 62.1033C63.9737 61.7934 64.1306 61.5175 64.3359 61.2755C64.5412 61.0336 64.7936 60.8309 65.0918 60.6648C65.3899 60.5 65.7404 60.3889 66.1432 60.3327C66.6506 60.2607 67.1789 60.2241 67.7255 60.2241C68.297 60.2241 68.8371 60.2738 69.3445 60.3706C69.8519 60.4687 70.2704 60.6243 70.6012 60.8361C70.8431 61.0075 70.9634 61.1618 70.9634 61.2991C70.9634 61.3958 70.9268 61.4848 70.8549 61.5645C70.783 61.6456 70.698 61.7241 70.6012 61.7999C70.5044 61.8771 70.4103 61.9555 70.3174 62.0353C70.2246 62.1164 70.1579 62.2092 70.1186 62.3126C70.086 62.4093 70.052 62.51 70.0153 62.6146C69.9787 62.7193 69.9434 62.816 69.9068 62.905C69.8702 62.9939 69.8349 63.0658 69.7983 63.122C69.7616 63.1783 69.7276 63.207 69.6949 63.207C69.6518 63.2084 69.623 63.1233 69.6152 62.9546Z" fill="#323232"/>
<path d="M78.2789 67.8964C78.5208 68.0821 78.8164 68.2272 79.1668 68.3318C79.5173 68.4365 79.856 68.5215 80.1816 68.5856C80.5086 68.6496 80.7871 68.7019 81.0212 68.7425C81.2553 68.783 81.3717 68.8314 81.3717 68.8876C81.3717 68.9112 81.3115 68.9439 81.1899 68.9844C81.0696 69.0249 80.9114 69.0668 80.7191 69.1113C80.5256 69.1557 80.3124 69.2015 80.0783 69.2499C79.8442 69.2983 79.6154 69.3401 79.3892 69.3767C79.1629 69.4133 78.9576 69.4408 78.7732 69.4617C78.5875 69.4813 78.4515 69.4879 78.3626 69.48C78.2174 69.4722 78.0474 69.3976 77.85 69.2564C77.6538 69.1152 77.442 68.9347 77.2183 68.7124C76.9934 68.4914 76.7606 68.2455 76.52 67.9748C76.2794 67.7054 76.0479 67.4308 75.8282 67.1536C75.6072 66.875 75.4006 66.6096 75.2084 66.3559C75.0161 66.1022 74.8553 65.8864 74.7271 65.7099V66.641V67.1C74.7271 67.4871 74.7206 67.8271 74.7088 68.1213C74.697 68.4155 74.6748 68.6065 74.6421 68.6954C74.5689 68.9046 74.4787 69.072 74.3727 69.1962C74.2668 69.3218 74.1622 69.4133 74.0602 69.4735C73.9582 69.5336 73.8627 69.5703 73.7725 69.582C73.6823 69.5938 73.6221 69.5886 73.5894 69.5637C73.5489 69.5402 73.473 69.4735 73.3592 69.3649C73.2468 69.2564 73.1239 69.1309 72.9905 68.9896C72.8571 68.8484 72.7302 68.7019 72.6099 68.5489C72.4896 68.3959 72.4046 68.2665 72.3562 68.1619C72.3235 68.1213 72.3353 68.0938 72.3928 68.0768C72.4334 68.0612 72.487 68.0572 72.5563 68.0651C72.6243 68.0729 72.691 68.0768 72.7551 68.0768C72.8924 68.0768 73.0166 68.0768 73.1304 68.0768C73.2429 68.0768 73.3396 68.0572 73.4207 68.0167C73.5005 67.9762 73.5659 67.9055 73.6142 67.8048C73.6626 67.7041 73.6901 67.5485 73.6993 67.3393C73.7149 67.0895 73.7228 66.8437 73.7228 66.6017C73.7228 66.3598 73.7228 66.1231 73.7228 65.889C73.7228 65.4536 73.7189 65.0194 73.711 64.5839C73.7032 64.1485 73.6953 63.6894 73.6862 63.2069C73.6783 62.8368 73.6443 62.4837 73.5829 62.1502C73.5227 61.8155 73.4599 61.5212 73.3959 61.2675C73.3318 61.0138 73.2795 60.8046 73.2389 60.6398C73.1984 60.4751 73.1906 60.3678 73.2154 60.3194C73.2389 60.2789 73.3423 60.2776 73.524 60.3129C73.7058 60.3495 73.9006 60.4031 74.1086 60.4764C74.3165 60.5483 74.5074 60.632 74.6814 60.7235C74.8553 60.8164 74.9468 60.8988 74.9547 60.9707C74.9625 61.0426 74.9547 61.1171 74.9298 61.1943C74.9063 61.2715 74.8801 61.3578 74.8514 61.4545C74.8226 61.5513 74.7951 61.6638 74.7664 61.7932C74.7376 61.9227 74.7245 62.0757 74.7245 62.2522L74.7611 64.5721C74.8814 64.7578 75.0096 64.9213 75.1469 65.0612C75.2829 65.2025 75.4032 65.3215 75.5078 65.4182C75.5641 65.4261 75.6726 65.3542 75.8335 65.2012C75.9943 65.0482 76.1748 64.8442 76.3749 64.5905C76.5763 64.3368 76.7868 64.0451 77.0065 63.7143C77.2275 63.3834 77.4302 63.0395 77.6146 62.6812C77.799 62.3229 77.952 61.9685 78.0723 61.618C78.1926 61.2675 78.2528 60.9432 78.2528 60.645C78.2528 60.5077 78.2828 60.4097 78.343 60.3495C78.4031 60.2894 78.4777 60.2593 78.5666 60.2593C78.6961 60.2593 78.8347 60.3116 78.9838 60.4162C79.1328 60.5208 79.2518 60.6542 79.3408 60.8151C79.397 60.9118 79.4349 61.0086 79.4559 61.1054C79.4755 61.2021 79.4859 61.2989 79.4859 61.3957C79.4859 61.7095 79.3892 62.0195 79.1956 62.3268C79.0021 62.6328 78.785 62.9349 78.5431 63.233C78.2776 63.5796 78.0331 63.8751 77.8121 64.121C77.5897 64.3668 77.3792 64.5905 77.1778 64.7918C76.9764 64.9932 76.7829 65.1868 76.5985 65.3725C76.4128 65.5582 76.2192 65.7635 76.0178 65.9884C76.2114 66.2055 76.3879 66.3886 76.5501 66.5377C76.7109 66.6867 76.8744 66.828 77.0392 66.96C77.204 67.0921 77.3857 67.2294 77.5832 67.3707C77.782 67.5119 78.0134 67.6871 78.2789 67.8964Z" fill="#323232"/>
<path d="M90.0732 66.5078C90.0732 66.5798 90.0706 66.6491 90.0667 66.7131C90.0628 66.7772 90.0602 66.8426 90.0602 66.9067C90.0602 67.1159 90.068 67.2872 90.085 67.4206C90.1007 67.554 90.1177 67.673 90.1334 67.7776C90.1491 67.8823 90.1674 67.9895 90.1883 68.098C90.2079 68.2066 90.2223 68.3413 90.2302 68.5034C90.2302 68.6407 90.2066 68.7754 90.1582 68.9088C90.1099 69.0422 90.0471 69.1612 89.9712 69.2658C89.8941 69.3704 89.8078 69.4528 89.711 69.513C89.6142 69.5731 89.5214 69.6032 89.4338 69.6032C89.3527 69.6032 89.2664 69.5705 89.1735 69.5064C89.0807 69.4424 88.9983 69.3547 88.9264 69.2462C88.8544 69.1377 88.7995 69.0069 88.7629 68.8539C88.7263 68.7009 88.7211 68.5361 88.7446 68.3583C88.7773 68.1647 88.8126 67.8587 88.8531 67.4402C88.8937 67.0218 88.9211 66.5575 88.9381 66.0501C88.946 65.8814 88.9525 65.6813 88.9564 65.4525C88.9604 65.2223 88.963 64.9791 88.963 64.7215V63.912V63.1261C88.6007 63.6256 88.2333 64.0951 87.8632 64.5332C87.4931 64.9726 87.1335 65.3793 86.7883 65.7533C86.4417 66.1286 86.12 66.4647 85.8218 66.7628C85.5237 67.061 85.2661 67.3186 85.049 67.5357C84.9679 67.5998 84.8698 67.6913 84.7534 67.8077C84.637 67.9241 84.5141 68.0536 84.3847 68.1948C84.2552 68.336 84.127 68.4812 83.9976 68.6303C83.8681 68.7794 83.7556 68.918 83.6589 69.0474C83.3685 69.4581 83.1266 69.6634 82.9344 69.6634C82.7421 69.6634 82.5643 69.4659 82.4021 69.071C82.3211 68.8944 82.2596 68.7493 82.2151 68.6355C82.1707 68.523 82.1484 68.4223 82.1484 68.3334C82.1484 68.2445 82.1785 68.1582 82.2387 68.0732C82.2988 67.9882 82.3969 67.8823 82.5342 67.7528C82.5748 67.7123 82.6088 67.6403 82.6375 67.5357C82.665 67.4311 82.6925 67.3016 82.716 67.1486C82.7238 67.0519 82.7278 66.9472 82.7278 66.8348C82.7278 66.7223 82.7278 66.5968 82.7278 66.4608C82.7278 66.1469 82.7238 65.7899 82.716 65.391C82.7082 64.9922 82.6964 64.5816 82.6794 64.1579C82.6637 63.7355 82.6428 63.3105 82.6192 62.8828C82.5957 62.4565 82.5708 62.0537 82.5473 61.6745C82.5395 61.5215 82.5172 61.379 82.4806 61.2456C82.444 61.1122 82.4061 60.9919 82.3655 60.8833C82.325 60.7748 82.291 60.678 82.2622 60.593C82.2334 60.508 82.2243 60.4374 82.2321 60.3812C82.24 60.3328 82.2923 60.3027 82.3891 60.2909C82.4858 60.2792 82.6048 60.2805 82.7461 60.2975C82.8873 60.3132 83.0403 60.3432 83.2051 60.3877C83.3699 60.4322 83.5216 60.4832 83.6589 60.5394C83.7962 60.5956 83.9099 60.6597 84.0028 60.7329C84.0956 60.8049 84.1414 60.8781 84.1414 60.95C84.1336 61.0063 84.1087 61.0586 84.0695 61.1069C84.029 61.1553 83.9884 61.2142 83.9492 61.2822C83.9086 61.3502 83.8707 61.4313 83.8341 61.5241C83.7975 61.617 83.7792 61.736 83.7792 61.8811C83.787 62.0184 83.7909 62.157 83.7909 62.2983C83.7909 62.4395 83.7909 62.586 83.7909 62.739C83.7909 62.8841 83.7909 63.0306 83.7909 63.1797C83.7909 63.3288 83.7949 63.4792 83.8027 63.6322V63.7172C83.8027 63.9748 83.804 64.2246 83.8093 64.4665C83.8132 64.7084 83.8158 64.9464 83.8158 65.1792C83.8158 65.4852 83.8119 65.769 83.804 66.0305C83.7962 66.2921 83.7753 66.5366 83.7439 66.7615C83.7439 66.9224 83.7596 67.0335 83.7923 67.0937C83.8249 67.1539 83.8681 67.1839 83.9256 67.1839C83.9897 67.1839 84.0629 67.1499 84.1427 67.0806C84.2238 67.0126 84.2957 66.9538 84.3598 66.9054C84.505 66.7851 84.7521 66.5588 85.1026 66.2293C85.4531 65.8984 85.848 65.4957 86.2874 65.021C86.7268 64.5463 87.1779 64.0205 87.6409 63.4438C88.1038 62.8684 88.521 62.2695 88.8911 61.6496C88.8505 61.4404 88.8047 61.2743 88.7524 61.154C88.7001 61.0337 88.6531 60.9343 88.6138 60.8585C88.5733 60.7826 88.5432 60.7199 88.5236 60.6715C88.504 60.6231 88.5053 60.5669 88.5301 60.5028C88.5864 60.3655 88.7028 60.2975 88.8806 60.2975C88.9931 60.2975 89.1055 60.321 89.2193 60.3694C89.3318 60.4178 89.4246 60.474 89.4965 60.5381C89.7947 60.6911 90.0039 60.8886 90.1255 61.1305C90.2459 61.3724 90.3073 61.6104 90.3073 61.8432C90.3073 62.0446 90.2746 62.2224 90.2105 62.3754L90.187 62.484C90.1465 62.6697 90.1269 62.7978 90.1269 62.8711V63.1248C90.1269 63.3026 90.1242 63.5393 90.1203 63.8375C90.1164 64.1356 90.1138 64.4416 90.1138 64.7555C90.1059 65.0053 90.102 65.2851 90.102 65.5951C90.0981 65.905 90.0889 66.2097 90.0732 66.5078Z" fill="#323232"/>
<path d="M99.7648 66.5079C99.7648 66.5798 99.7622 66.6491 99.7582 66.7132C99.7543 66.7772 99.7517 66.8426 99.7517 66.9067C99.7517 67.1159 99.7595 67.2873 99.7765 67.4206C99.7922 67.554 99.8092 67.673 99.8249 67.7776C99.8406 67.8823 99.8589 67.9895 99.8799 68.098C99.8995 68.2066 99.9139 68.3413 99.9217 68.5034C99.9217 68.6407 99.8982 68.7754 99.8498 68.9088C99.8014 69.0422 99.7386 69.1612 99.6628 69.2658C99.5856 69.3705 99.4993 69.4528 99.4025 69.513C99.3058 69.5732 99.2129 69.6032 99.1253 69.6032C99.0442 69.6032 98.9579 69.5705 98.8651 69.5065C98.7722 69.4424 98.6898 69.3548 98.6179 69.2462C98.546 69.1377 98.4911 69.0069 98.4544 68.8539C98.4178 68.7009 98.4126 68.5361 98.4361 68.3583C98.4688 68.1647 98.5041 67.8587 98.5447 67.4403C98.5852 67.0218 98.6127 66.5575 98.6297 66.0502C98.6375 65.8815 98.6441 65.6814 98.648 65.4525C98.6519 65.2224 98.6545 64.9791 98.6545 64.7215V63.912V63.1261C98.2923 63.6256 97.9248 64.0951 97.5547 64.5332C97.1846 64.9726 96.825 65.3793 96.4798 65.7533C96.1332 66.1286 95.8115 66.4647 95.5134 66.7629C95.2152 67.061 94.9576 67.3186 94.7405 67.5357C94.6594 67.5998 94.5613 67.6913 94.445 67.8077C94.3286 67.9241 94.2056 68.0536 94.0762 68.1948C93.9467 68.3361 93.8186 68.4812 93.6891 68.6303C93.5596 68.7794 93.4472 68.918 93.3504 69.0474C93.0601 69.4581 92.8181 69.6634 92.6259 69.6634C92.4337 69.6634 92.2558 69.4659 92.0937 69.071C92.0126 68.8944 91.9511 68.7493 91.9067 68.6355C91.8622 68.5231 91.84 68.4224 91.84 68.3334C91.84 68.2445 91.8701 68.1582 91.9302 68.0732C91.9904 67.9882 92.0884 67.8823 92.2258 67.7528C92.2663 67.7123 92.3003 67.6403 92.3291 67.5357C92.3565 67.4311 92.384 67.3016 92.4075 67.1486C92.4154 67.0519 92.4193 66.9472 92.4193 66.8348C92.4193 66.7223 92.4193 66.5968 92.4193 66.4608C92.4193 66.1469 92.4154 65.7899 92.4075 65.3911C92.3997 64.9922 92.3879 64.5816 92.3709 64.1579C92.3552 63.7355 92.3343 63.3105 92.3108 62.8829C92.2872 62.4565 92.2624 62.0538 92.2388 61.6745C92.231 61.5215 92.2087 61.379 92.1721 61.2456C92.1355 61.1122 92.0976 60.9919 92.0571 60.8833C92.0165 60.7748 91.9825 60.678 91.9538 60.593C91.925 60.508 91.9158 60.4374 91.9237 60.3812C91.9315 60.3328 91.9838 60.3027 92.0806 60.2909C92.1774 60.2792 92.2964 60.2805 92.4376 60.2975C92.5788 60.3132 92.7318 60.3432 92.8966 60.3877C93.0614 60.4322 93.2131 60.4832 93.3504 60.5394C93.4877 60.5956 93.6015 60.6597 93.6943 60.7329C93.7872 60.8049 93.8329 60.8781 93.8329 60.95C93.8251 61.0063 93.8003 61.0586 93.761 61.107C93.7205 61.1553 93.6799 61.2142 93.6407 61.2822C93.6002 61.3502 93.5622 61.4313 93.5256 61.5241C93.489 61.617 93.4707 61.736 93.4707 61.8811C93.4786 62.0184 93.4825 62.1571 93.4825 62.2983C93.4825 62.4395 93.4825 62.586 93.4825 62.739C93.4825 62.8841 93.4825 63.0306 93.4825 63.1797C93.4825 63.3288 93.4864 63.4792 93.4942 63.6322V63.7172C93.4942 63.9748 93.4956 64.2246 93.5008 64.4665C93.5047 64.7084 93.5073 64.9464 93.5073 65.1792C93.5073 65.4852 93.5034 65.769 93.4955 66.0305C93.4877 66.2921 93.4668 66.5366 93.4354 66.7615C93.4354 66.9224 93.4511 67.0336 93.4838 67.0937C93.5165 67.1539 93.5596 67.1839 93.6172 67.1839C93.6813 67.1839 93.7545 67.1499 93.8342 67.0806C93.9153 67.0126 93.9873 66.9538 94.0513 66.9054C94.1965 66.7851 94.4437 66.5589 94.7941 66.2293C95.1446 65.8985 95.5395 65.4957 95.9789 65.021C96.4183 64.5463 96.8695 64.0206 97.3324 63.4439C97.7953 62.8685 98.2125 62.2695 98.5826 61.6497C98.5421 61.4404 98.4963 61.2743 98.444 61.154C98.3917 61.0337 98.3446 60.9343 98.3054 60.8585C98.2648 60.7826 98.2347 60.7199 98.2151 60.6715C98.1955 60.6231 98.1968 60.5669 98.2217 60.5028C98.2779 60.3655 98.3943 60.2975 98.5721 60.2975C98.6846 60.2975 98.7971 60.321 98.9108 60.3694C99.0233 60.4178 99.1161 60.474 99.1881 60.5381C99.4862 60.6911 99.6955 60.8886 99.8171 61.1305C99.9374 61.3724 99.9988 61.6104 99.9988 61.8432C99.9988 62.0446 99.9662 62.2224 99.9021 62.3755L99.8785 62.484C99.838 62.6697 99.8184 62.7978 99.8184 62.8711V63.1248C99.8184 63.3026 99.8158 63.5393 99.8119 63.8375C99.8079 64.1356 99.8053 64.4416 99.8053 64.7555C99.7975 65.0053 99.7935 65.2851 99.7935 65.5951C99.7883 65.905 99.7805 66.2097 99.7648 66.5079ZM94.1573 59.0028C93.6577 58.7047 93.4602 58.4954 93.5649 58.3751C93.6368 58.2862 93.7767 58.2784 93.982 58.3503C94.1873 58.4222 94.492 58.519 94.8948 58.6406C94.9759 58.6654 95.0766 58.6929 95.1969 58.7256C95.3172 58.7583 95.4388 58.7858 95.5591 58.8106C95.6794 58.8354 95.7932 58.8551 95.8978 58.8708C96.0025 58.8864 96.0796 58.8943 96.128 58.8943C96.2575 58.8865 96.3961 58.8642 96.5452 58.8276C96.6942 58.791 96.8433 58.7491 96.9924 58.7007C97.1415 58.6524 97.284 58.6027 97.4213 58.5504C97.5586 58.4981 97.679 58.4523 97.7836 58.4117C97.9117 58.3634 98.0111 58.345 98.0791 58.3568C98.1471 58.3686 98.1942 58.3947 98.2177 58.4353C98.2583 58.4915 98.2622 58.5464 98.2295 58.5987C98.1968 58.6511 98.1733 58.685 98.1576 58.702C98.0451 58.8145 97.8921 58.9414 97.6986 59.0826C97.505 59.2238 97.3063 59.3546 97.1009 59.4749C96.8956 59.5952 96.7021 59.6985 96.5203 59.7835C96.3385 59.8685 96.2038 59.9104 96.1149 59.9104C96.0103 59.9104 95.873 59.8777 95.7043 59.8136C95.5356 59.7495 95.3551 59.6685 95.1668 59.5717C94.9772 59.4749 94.7915 59.3742 94.611 59.2696C94.4293 59.165 94.2789 59.0761 94.1573 59.0028Z" fill="#323232"/>
<path d="M30.3326 90.5749L28.9713 91.8382C29.1439 92.3247 29.3597 92.7745 29.6199 93.1904L28.9713 93.9999L27.9016 92.8085L26.7024 93.9999C25.7517 93.4676 24.7042 93.0138 23.56 92.6359C22.4144 92.2593 21.1734 91.9925 19.8343 91.8369C19.5962 92.6333 19.3046 93.3538 18.9594 93.9999L16.5296 91.7401C15.7084 91.7401 14.8767 91.846 14.0345 92.0579C13.7533 92.1285 13.3976 92.2462 12.9648 92.4123L13.4186 93.1904L12.7699 93.9999L11.6688 92.7444C11.3014 92.853 10.9077 92.9981 10.4867 93.1812C10.0656 93.3656 9.70332 93.5435 9.40124 93.7161L8.46098 93.2545C9.15146 92.6725 9.96225 92.135 10.8907 91.642C9.70202 89.806 8.90299 87.5358 8.49368 84.8353C8.36421 83.8846 8.29883 82.913 8.29883 81.9178C8.29883 78.8277 8.903 75.7584 10.1139 72.7114L14.6177 76.7314C13.6239 78.0273 12.8628 79.5077 12.3332 81.1724C11.8035 82.8371 11.5394 84.5332 11.5394 86.2621C11.5394 87.9909 11.8088 89.5575 12.3488 90.962C12.7163 90.7462 13.0079 90.5841 13.2237 90.4755C13.9142 90.1303 14.5092 89.9028 15.0061 89.7955C15.6757 88.5218 16.238 86.9395 16.6905 85.0485C17.1443 83.1588 17.3705 81.2312 17.3705 79.2644C17.3705 78.2496 17.3051 77.261 17.1756 76.2998C17.0462 75.3387 16.8304 74.3827 16.527 73.432L17.1103 73.075C17.9956 74.4363 18.7632 76.2174 19.4106 78.421C19.9938 80.4087 20.3717 82.3847 20.5443 84.3502C20.6097 85.0629 20.6411 85.7547 20.6411 86.4242C20.6411 86.7485 20.6359 87.0454 20.6254 87.3148C20.6137 87.5855 20.5653 88.1203 20.479 88.918C21.7108 88.918 22.6825 88.9494 23.3952 89.0096C24.1079 89.071 24.9187 89.1992 25.8249 89.3954C25.5869 88.9403 25.4038 88.5388 25.2744 88.1923C24.8415 87.1081 24.5564 86.1208 24.4152 85.2316C24.274 84.3423 24.1824 83.5512 24.1393 82.8568C24.0961 82.1637 24.0739 81.5124 24.0739 80.9056C24.0739 79.1494 24.2465 77.4899 24.5917 75.9284C24.8716 74.6704 25.2286 73.5968 25.6615 72.7075L30.1653 76.7275C29.3009 77.8299 28.647 79.1311 28.205 80.6336C27.7617 82.1362 27.5407 83.6754 27.5407 85.2525C27.5407 86.9172 27.7499 88.4394 28.171 89.823C28.613 89.9315 28.9962 90.0453 29.3218 90.1643C29.6513 90.2885 29.9861 90.4245 30.3326 90.5749Z" fill="#F09E00"/>
<path d="M53.5304 89.7824L50.0636 93.6846C49.2423 92.4488 48.6329 91.0653 48.2328 89.5352C47.8326 88.0052 47.6338 86.3509 47.6338 84.5724C47.6338 83.6832 47.6875 82.7455 47.796 81.7582C47.9032 80.7709 48.0549 79.7456 48.2498 78.6824C46.5654 80.0438 45.3872 81.1671 44.7176 82.0524C44.2207 82.722 43.8637 83.4569 43.6479 84.2559C44.0794 85.7677 44.2965 87.4311 44.2965 89.2462C44.2965 90.4781 44.1998 91.9571 44.0049 93.6846H42.9038C42.9038 91.8486 42.8659 90.482 42.79 89.5862C42.7142 88.6904 42.5468 87.8522 42.2879 87.0754C42.1152 87.9045 41.9858 88.799 41.8995 89.7588C41.8132 90.7187 41.77 92.0277 41.77 93.6859H40.6689C40.5172 92.3377 40.4427 91.098 40.4427 89.9655C40.4427 88.9428 40.5015 88.0457 40.6205 87.2729C40.7395 86.5013 40.9396 85.6029 41.2195 84.5803C40.8742 83.9316 40.2844 83.0842 39.454 82.0367C38.6223 80.9893 37.9358 80.2386 37.397 79.7849C37.7213 81.4483 37.8835 82.9822 37.8835 84.3854C37.8835 87.8653 36.8137 90.9659 34.6756 93.6846L31.4678 89.7209C33.9734 87.1866 35.2262 83.9264 35.2262 79.9405C35.2262 79.3559 35.1935 78.7491 35.1294 78.1214C34.8914 77.9697 34.6115 77.8076 34.2872 77.6349C33.9629 77.4623 33.6177 77.2779 33.2502 77.0818L34.5788 75.4157L32.8945 72.918L33.6726 72.1948C34.1473 72.7624 34.4389 73.1155 34.5475 73.2554C34.6547 73.3966 34.9149 73.7798 35.3256 74.4062L36.751 72.5597C38.1555 73.7484 39.2134 74.8717 39.9261 75.9297C40.6388 76.9889 41.4274 78.587 42.2918 80.7251C42.9404 79.3114 43.8571 77.8442 45.0458 76.3233C46.126 74.9306 47.1944 73.8164 48.2537 72.9821L49.6791 74.537C49.9812 74.0832 50.2467 73.7039 50.4729 73.3992C50.6991 73.0945 50.9855 72.6931 51.3321 72.1961L52.1102 72.9821L50.4258 75.4445L51.7545 76.611C51.3216 76.8281 50.9986 77.0125 50.7828 77.1642C50.6743 77.2518 50.5239 77.3486 50.3291 77.4571C50.3068 77.7396 50.2911 78.0534 50.2807 78.4013C50.2689 78.7478 50.265 79.008 50.265 79.182C50.265 81.2639 50.5618 83.2529 51.1555 85.1504C51.7427 87.0453 52.5378 88.5897 53.5304 89.7824Z" fill="#F09E00"/>
<path d="M72.2269 88.0161L68.598 93.3934C67.9716 93.502 67.4642 93.5778 67.0758 93.6223C66.6874 93.6654 66.3199 93.6877 65.9747 93.6877C62.7132 93.6877 60.256 92.7997 58.6031 91.0212C56.9501 89.244 56.1249 86.762 56.1249 83.5777V82.929C55.7575 83.188 55.4005 83.5227 55.0552 83.9334C54.9467 84.0628 54.8067 84.2472 54.6341 84.4839L53.7266 83.9661C54.3098 82.929 55.1624 81.9678 56.2858 81.0825C56.3721 80.3044 56.529 79.5656 56.7553 78.8633C56.9815 78.1611 57.4196 77.0979 58.0669 75.6712C57.57 75.3913 57.0953 75.1102 56.6415 74.829C56.1877 74.5491 55.5613 74.1385 54.7623 73.5971L55.4423 72.8517C56.4139 73.3696 57.57 73.7593 58.9091 74.0182L59.8493 72.7223L60.6274 73.3382L60.0769 74.1804C60.919 74.2457 61.6749 74.2771 62.3445 74.2771C63.6613 74.2771 64.7847 74.1307 65.7145 73.8377C66.6429 73.5448 67.6041 73.04 68.598 72.3247L71.8385 75.8974C69.7867 77.107 67.6917 77.7125 65.5523 77.7125C63.6077 77.7125 61.4591 77.2051 59.1039 76.189C58.607 77.5072 58.3585 78.8241 58.3585 80.1423C59.6545 79.818 60.7451 79.6558 61.6304 79.6558C63.2716 79.6558 64.9246 80.3685 66.588 81.7939L63.2507 85.2934C61.6958 83.7594 60.1396 82.8636 58.5848 82.6034C59.1248 84.8828 60.1187 86.5867 61.5651 87.7153C62.9042 88.7575 64.599 89.278 66.6521 89.278C67.4733 89.278 68.2776 89.1891 69.0662 89.0126C69.856 88.836 70.9087 88.5038 72.2269 88.0161Z" fill="#F09E00"/>
<path d="M90.1768 89.278L85.8351 93.8157C85.8351 90.8354 85.4794 88.1023 84.7654 85.6189C84.1599 83.5017 83.1988 81.3414 81.8819 79.1392C81.8819 81.5362 81.3902 83.9594 80.4081 86.4088C79.4247 88.8595 78.0045 91.3795 76.1475 93.9701L72.6154 89.3381C74.5599 87.8055 76.2116 86.0021 77.5729 83.9294C79.1278 81.5545 80.0131 79.1902 80.2302 76.8363C79.8628 76.4047 79.5227 76.0216 79.2102 75.6868C78.8963 75.352 78.4596 74.9362 77.8985 74.4392L78.5786 73.4676L80.004 74.4078L79.6156 73.4676L80.6853 72.6816C80.9011 73.1354 81.1339 73.6167 81.3823 74.1241C81.6308 74.6315 81.755 75.1336 81.755 75.6306C86.4615 79.4779 89.2692 84.0261 90.1768 89.278Z" fill="#F09E00"/>
<path d="M108.677 87.3292C108.677 88.769 108.17 90.048 107.155 91.1648C106.139 92.2816 104.606 93.1525 102.554 93.775L97.4999 89.1169C97.3273 89.895 97.067 90.6718 96.7218 91.4499C96.3766 92.2279 95.9542 92.9733 95.4585 93.6861L91.6348 89.2712C92.4979 88.4735 93.2433 87.4914 93.871 86.3262C94.6491 84.8799 95.0375 83.4558 95.0375 82.0539C94.6922 82.0539 94.2057 82.2056 93.5793 82.5076C93.3845 82.594 93.1033 82.7457 92.7372 82.9614L92.3488 81.8276C92.8026 81.5687 93.3858 81.2993 94.0985 81.0182C94.3365 80.9318 94.6491 80.8233 95.0388 80.6938C95.1251 80.0452 95.1787 79.6568 95.2009 79.5273C95.2009 79.203 95.2009 78.9768 95.2009 78.8473C95.2009 77.163 94.8661 75.4773 94.1966 73.793C93.9808 73.232 93.6343 72.5402 93.1596 71.7189L93.8723 71.0703C94.8439 72.2368 95.6756 73.6191 96.3674 75.2171C96.8212 76.275 97.1991 77.4638 97.5012 78.7806C97.5875 79.2776 97.6843 79.7745 97.7928 80.2714C97.9654 80.2714 98.295 80.2714 98.7815 80.2714C99.2679 80.2714 99.5753 80.2714 99.7047 80.2714C99.9636 80.2714 100.174 80.2714 100.336 80.2714C100.499 80.2714 100.827 80.3146 101.325 80.4009C103.722 80.788 105.58 81.6472 106.898 82.9784C108.083 84.1815 108.677 85.6318 108.677 87.3292ZM105.145 86.2281C105.145 85.2146 104.739 84.3188 103.93 83.5421C103.12 82.7653 102.013 82.216 100.608 81.8917C100.068 81.7623 99.5766 81.6969 99.1346 81.6969C98.6912 81.6969 98.3512 81.6969 98.1145 81.6969V82.4083C98.1145 83.8324 98.0988 84.9112 98.0662 85.6449C98.0335 86.3785 97.9419 87.1226 97.7902 87.8785C98.3735 88.2891 98.9946 88.5846 99.6537 88.769C100.313 88.9521 100.922 89.0436 101.485 89.0436C102.629 89.0436 103.526 88.7847 104.173 88.2669C104.822 87.749 105.145 87.069 105.145 86.2281Z" fill="#F09E00"/>
</svg>
