<svg width="281" height="147" viewBox="0 0 281 147" fill="none" xmlns="http://www.w3.org/2000/svg">
<g opacity="0.1">
<path fill-rule="evenodd" clip-rule="evenodd" d="M132.427 0.438033C132.424 0.448122 132.421 0.458293 140.34 2.93771C148.26 5.41713 148.256 5.42746 148.253 5.43786L148.246 5.45907L148.232 5.50289C148.223 5.53274 148.212 5.56383 148.201 5.59616C148.18 5.66081 148.156 5.73038 148.129 5.80476C148.075 5.95353 148.011 6.12135 147.936 6.30728C147.784 6.67938 147.585 7.12265 147.325 7.62978C146.806 8.64574 146.052 9.90666 144.967 11.3568C142.793 14.2624 139.336 17.8693 133.876 21.7807C124.598 28.428 109.479 35.9972 84.7706 42.5792L95.2468 54.3134L93.0697 59.2118L85.4865 55.8415C93.0697 59.2118 93.066 59.2202 93.0622 59.2287L93.0545 59.2459L93.0385 59.2812C93.0276 59.3051 93.0163 59.3298 93.0044 59.3552C92.9808 59.406 92.9552 59.4597 92.9276 59.5162C92.8724 59.6292 92.8092 59.7535 92.7371 59.8881C92.593 60.1573 92.4138 60.4675 92.1938 60.8113C91.7529 61.5001 91.1519 62.3177 90.347 63.2064C88.7254 64.9968 86.3458 66.9992 82.9282 68.8146C79.6078 70.5785 75.391 72.1243 70.0351 73.1671L72.3155 75.1533C72.8773 75.1507 73.4393 75.148 74.0017 75.1454L74.0206 75.1453C75.5714 75.138 77.1248 75.1307 78.6793 75.1242L87.0124 75.0895V146.721H50.7377V121.218C49.2239 120.44 47.8746 119.573 46.7608 118.806C43.4278 116.513 40.1017 113.593 37.2553 110.874C34.3728 108.12 31.7952 105.392 29.9489 103.366C29.0215 102.348 28.2684 101.497 27.742 100.894C27.4786 100.592 27.2713 100.351 27.1267 100.183C27.0544 100.098 26.9978 100.032 26.9575 99.9846L26.9096 99.9281L26.8901 99.9052L26.8883 99.903C26.8875 99.9021 26.8868 99.9013 33.2295 94.55L26.8868 99.9013L15.6984 86.64L33.0446 86.2536C43.9145 86.0114 51.0835 84.3265 55.6207 82.6221L26.0734 56.8871L49.7037 57.8716C62.265 58.3949 69.5443 56.6138 73.5378 54.9183L53.7185 32.7189L67.5749 29.671C99.1326 22.7293 115.725 14.3683 124.21 8.2888C128.432 5.26471 130.623 2.82308 131.678 1.414C132.207 0.706834 132.461 0.243907 132.547 0.0753465C132.573 0.0256617 132.584 0.000154721 132.584 7.02259e-07C132.584 -0.000109209 132.579 0.0126819 132.568 0.0388005C132.555 0.0700557 132.536 0.120209 132.51 0.189985C132.498 0.22486 132.484 0.264603 132.469 0.309303C132.461 0.331651 132.454 0.355235 132.446 0.380064L132.433 0.418242L132.427 0.438033ZM51.0767 101.052C52.8444 102.629 54.5814 104.041 56.1699 105.134C58.3051 106.604 59.2629 106.853 59.2543 106.892C59.2537 106.895 59.2472 106.897 59.235 106.898H67.3347V130.124H70.4154V93.6312C69.1382 94.4967 67.626 95.3916 65.8466 96.268C62.1252 98.1008 57.2959 99.8242 51.0767 101.052Z" fill="#4C4C4C"/>
<path fill-rule="evenodd" clip-rule="evenodd" d="M96.9388 123.494H59.033V106.897H96.9388V123.494Z" fill="#4C4C4C"/>
<path fill-rule="evenodd" clip-rule="evenodd" d="M140.34 64.1399H85.4866V47.543H140.34V64.1399Z" fill="#4C4C4C"/>
<path fill-rule="evenodd" clip-rule="evenodd" d="M88.632 91.7215H78.7106V75.1245H105.246L105.174 146.721H78.7106V130.124H88.5934L88.632 91.7215Z" fill="#4C4C4C"/>
<path fill-rule="evenodd" clip-rule="evenodd" d="M140.34 91.7215H96.9388V75.1245H140.34V91.7215Z" fill="#4C4C4C"/>
<path fill-rule="evenodd" clip-rule="evenodd" d="M0 130.124H59.0329V146.721H0V130.124Z" fill="#4C4C4C"/>
<path fill-rule="evenodd" clip-rule="evenodd" d="M112.243 94.6392H140.34V111.236H128.84V146.721H96.8831V130.124H112.243V94.6392Z" fill="#4C4C4C"/>
<path fill-rule="evenodd" clip-rule="evenodd" d="M132.372 5.43786C132.368 5.42746 132.365 5.41713 140.285 2.93771C148.204 0.458293 148.201 0.448122 148.198 0.438033L148.191 0.418242L148.179 0.380064C148.171 0.355235 148.163 0.331651 148.156 0.309303C148.141 0.264603 148.127 0.22486 148.114 0.189985C148.089 0.120209 148.07 0.0700557 148.057 0.0388005C148.046 0.0128107 148.04 1.71835e-05 148.04 1.737e-08C148.04 -2.43013e-05 148.052 0.025487 148.077 0.0753465C148.164 0.243907 148.418 0.706834 148.947 1.414C150.002 2.82308 152.193 5.26471 156.414 8.2888C164.9 14.3683 181.492 22.7293 213.05 29.671L226.906 32.7189L207.087 54.9183C211.08 56.6138 218.36 58.3949 230.921 57.8716L254.551 56.8871L225.004 82.6221C229.541 84.3265 236.71 86.0114 247.58 86.2536L264.926 86.64L253.738 99.9013L247.395 94.55C253.738 99.9013 253.737 99.9021 253.736 99.903L253.715 99.9281L253.667 99.9846C253.627 100.032 253.57 100.098 253.498 100.183C253.353 100.351 253.146 100.592 252.883 100.894C252.356 101.497 251.603 102.348 250.676 103.366C248.83 105.392 246.252 108.12 243.369 110.874C240.523 113.593 237.197 116.513 233.864 118.806C232.75 119.573 231.401 120.44 229.887 121.218V146.721H193.612V75.1155L208.335 75.1309L210.59 73.1671C205.234 72.1243 201.017 70.5785 197.697 68.8146C194.279 66.9992 191.899 64.9968 190.278 63.2064C189.473 62.3177 188.872 61.5001 188.431 60.8113C188.211 60.4675 188.032 60.1573 187.888 59.8881C187.816 59.7535 187.752 59.6292 187.697 59.5162C187.67 59.4597 187.644 59.406 187.62 59.3552C187.608 59.3298 187.597 59.3052 187.586 59.2813L187.57 59.246L187.563 59.2287C187.559 59.2202 187.555 59.2118 195.138 55.8415L187.555 59.2118L185.378 54.3134L195.854 42.5792C171.146 35.9972 156.027 28.428 146.748 21.7807C141.289 17.8693 137.832 14.2624 135.658 11.3568C134.573 9.90666 133.819 8.64574 133.299 7.62978C133.04 7.12265 132.841 6.67938 132.689 6.30728C132.613 6.12134 132.549 5.95353 132.496 5.80476C132.469 5.73038 132.445 5.66081 132.423 5.59616C132.412 5.56383 132.402 5.53274 132.393 5.50289L132.378 5.45907L132.372 5.43786ZM210.209 93.6312V130.124H213.29V106.898H221.39C221.378 106.897 221.371 106.895 221.37 106.892C221.362 106.853 222.32 106.604 224.455 105.134C226.043 104.041 227.78 102.629 229.548 101.052C223.329 99.8242 218.5 98.1008 214.778 96.268C212.999 95.3916 211.487 94.4967 210.209 93.6312Z" fill="#B47700"/>
<path fill-rule="evenodd" clip-rule="evenodd" d="M183.686 106.897H221.592V123.494H183.686V106.897Z" fill="#B47700"/>
<path fill-rule="evenodd" clip-rule="evenodd" d="M140.285 47.543H195.138V64.1399H140.285V47.543Z" fill="#B47700"/>
<path fill-rule="evenodd" clip-rule="evenodd" d="M175.379 75.1245H201.914V91.7215H191.993L192.032 130.124H201.914V146.721H175.451L175.379 75.1245Z" fill="#B47700"/>
<path fill-rule="evenodd" clip-rule="evenodd" d="M140.285 75.1245H183.686V91.7215H140.285V75.1245Z" fill="#B47700"/>
<path fill-rule="evenodd" clip-rule="evenodd" d="M280.625 146.721H221.592V130.124H280.625V146.721Z" fill="#B47700"/>
<path fill-rule="evenodd" clip-rule="evenodd" d="M140.285 94.6392H168.381V130.124H183.741V146.721H151.784V111.236H140.285V94.6392Z" fill="#B47700"/>
<path fill-rule="evenodd" clip-rule="evenodd" d="M160.083 146.721H139.596V130.124H160.083V146.721Z" fill="#B47700"/>
<path fill-rule="evenodd" clip-rule="evenodd" d="M139.596 146.721H119.106V130.124H139.596V146.721Z" fill="#4C4C4C"/>
</g>
</svg>
