<svg width="69" height="58" viewBox="0 0 69 58" fill="none" xmlns="http://www.w3.org/2000/svg">
<path d="M34.5068 1C34.5068 1 32.9174 6.07645 17.0536 9.56596L21.0194 14.008C21.0194 14.008 19.7505 16.863 12.1362 16.5458L17.0536 20.8288C17.0536 20.8288 15.3085 23.3666 8.17041 23.5256C8.17041 23.5256 12.4534 28.6021 14.5158 28.6021V34.313H19.3541V20.7896C18.5878 20.7928 17.8223 20.7968 17.056 20.8" stroke="#323232" stroke-width="3.14351" stroke-miterlimit="10"/>
<path d="M14.5151 28.6021H23.8354" stroke="#323232" stroke-width="3.14351" stroke-miterlimit="10"/>
<path d="M21.0194 14.0081H34.5068" stroke="#323232" stroke-width="3.14351" stroke-miterlimit="10"/>
<path d="M19.3533 20.7896H23.8352L23.8216 34.3129H19.3533" stroke="#323232" stroke-width="3.14351" stroke-miterlimit="10"/>
<path d="M23.8353 20.7896H34.5068" stroke="#323232" stroke-width="3.14351" stroke-miterlimit="10"/>
<path d="M14.515 34.313H0" stroke="#323232" stroke-width="3.14351" stroke-miterlimit="10"/>
<path d="M23.8217 34.3129H29.6388V25.5879H34.5067" stroke="#323232" stroke-width="3.14351" stroke-miterlimit="10"/>
<path d="M34.4932 1C34.4932 1 36.0825 6.07645 51.9463 9.56596L47.9806 14.008C47.9806 14.008 49.2495 16.863 56.8638 16.5458L51.9463 20.8288C51.9463 20.8288 53.6915 23.3666 60.8295 23.5256C60.8295 23.5256 56.5465 28.6021 54.4842 28.6021V34.313H49.6458C49.6458 29.8055 49.6458 25.2971 49.6458 20.7896C50.4105 20.7904 51.176 20.7912 51.9407 20.792" stroke="#E8B03F" stroke-width="3.14351" stroke-miterlimit="10"/>
<path d="M54.485 28.6021H45.1647" stroke="#E8B03F" stroke-width="3.14351" stroke-miterlimit="10"/>
<path d="M47.9806 14.0081H34.4932" stroke="#E8B03F" stroke-width="3.14351" stroke-miterlimit="10"/>
<path d="M49.6466 20.7896H45.1647L45.1783 34.3129H49.6466" stroke="#E8B03F" stroke-width="3.14351" stroke-miterlimit="10"/>
<path d="M45.1647 20.7896H34.4932" stroke="#E8B03F" stroke-width="3.14351" stroke-miterlimit="10"/>
<path d="M54.485 34.313H69" stroke="#E8B03F" stroke-width="3.14351" stroke-miterlimit="10"/>
<path d="M45.1783 34.3129H39.3611V25.5879H34.4932" stroke="#E8B03F" stroke-width="3.14351" stroke-miterlimit="10"/>
<path d="M34.3237 34.313H39.361" stroke="#E8B03F" stroke-width="3.14351" stroke-miterlimit="10"/>
<path d="M29.2858 34.313H34.3239" stroke="#323232" stroke-width="3.14351" stroke-miterlimit="10"/>
<path d="M13.084 42.5778C13.1775 42.6121 13.2438 42.6441 13.2838 42.6737C13.3229 42.7032 13.3469 42.728 13.3541 42.7472C13.3613 42.7671 13.3565 42.7831 13.3389 42.7951C13.3213 42.8071 13.303 42.8135 13.2838 42.8135C13.1951 42.8231 13.1 42.8311 12.9993 42.8359C12.8986 42.8407 12.794 42.8431 12.6853 42.8431C12.5574 42.8431 12.428 42.8391 12.2977 42.8319C12.1675 42.8247 12.0468 42.8119 11.9358 42.7951C11.8247 42.7783 11.7288 42.7568 11.6481 42.732C11.5666 42.7072 11.5091 42.6776 11.4747 42.6433C11.4204 42.5842 11.3628 42.5226 11.3013 42.4587C11.2398 42.3948 11.1735 42.3085 11.1015 42.2006C11.0304 42.0927 10.9513 41.9569 10.865 41.7947C10.7787 41.6325 10.6844 41.4231 10.5805 41.1674C10.4823 41.1674 10.3752 41.1698 10.2593 41.1746C10.1435 41.1794 10.0228 41.1858 9.89735 41.193C9.77189 41.2002 9.64884 41.2106 9.52818 41.2225C9.40752 41.2345 9.29565 41.2513 9.19257 41.2705C9.01997 41.5462 8.80822 41.8147 8.55731 42.0752C8.30641 42.3364 7.97639 42.585 7.56807 42.8207C7.50894 42.855 7.45461 42.8758 7.40586 42.8838C7.35632 42.891 7.31956 42.8886 7.29479 42.8766C7.27002 42.8638 7.26123 42.8431 7.26922 42.8135C7.27641 42.7839 7.30758 42.7472 7.36112 42.7024C7.65677 42.4659 7.89649 42.2278 8.08107 41.9865C8.26566 41.7451 8.41189 41.5214 8.52056 41.3144C8.44145 41.324 8.3935 41.3328 8.37672 41.34C8.35914 41.3472 8.32638 41.356 8.27684 41.3656C8.14899 41.3904 8.05071 41.4063 7.98119 41.4135C7.91247 41.4207 7.85094 41.4199 7.7966 41.4095C7.74227 41.3999 7.68554 41.3848 7.62641 41.3656C7.56728 41.3456 7.51453 41.3224 7.46739 41.2953C7.42024 41.2681 7.38509 41.2409 7.36032 41.2138C7.33555 41.1866 7.33075 41.161 7.34593 41.1363C7.3707 41.0923 7.43543 41.0452 7.54171 40.9956C7.64718 40.9461 7.82857 40.9221 8.08427 40.9221C8.14819 40.9221 8.22171 40.9213 8.30561 40.9181C8.38951 40.9157 8.51496 40.9021 8.68197 40.8774C8.87854 40.4243 9.03755 40.0144 9.15821 39.6476C9.27887 39.2808 9.36996 38.9644 9.43149 38.6991C9.49302 38.433 9.53217 38.2205 9.54975 38.0607C9.56733 37.9008 9.57293 37.7986 9.56813 37.7546C9.56334 37.7298 9.55215 37.7003 9.53457 37.6659C9.51699 37.6316 9.50101 37.5956 9.48663 37.5588C9.47144 37.5221 9.45946 37.4853 9.44987 37.4478C9.44028 37.411 9.43788 37.3775 9.44268 37.3479C9.45227 37.3135 9.49941 37.2864 9.58331 37.2664C9.66722 37.2464 9.7655 37.2368 9.87897 37.2368C9.97725 37.2368 10.0795 37.2464 10.185 37.2664C10.2905 37.2864 10.388 37.3207 10.4767 37.3695C10.5702 37.4238 10.6293 37.4717 10.6541 37.5133C10.6788 37.5549 10.686 37.5924 10.6764 37.6244C10.6668 37.6563 10.6493 37.6835 10.6245 37.7059C10.5997 37.7282 10.5853 37.749 10.5805 37.769C10.5805 37.7842 10.5694 37.8257 10.547 37.8945C10.5246 37.9632 10.4966 38.0471 10.4623 38.1454C10.4279 38.2436 10.3936 38.3483 10.3592 38.4594C10.3248 38.5705 10.2929 38.6727 10.2633 38.7654C10.3025 38.8837 10.3528 39.0251 10.4143 39.1897C10.4759 39.3551 10.5422 39.5261 10.6141 39.7027C10.6852 39.8801 10.7595 40.0511 10.8354 40.2157C10.9114 40.3803 10.9817 40.5194 11.0456 40.6328C11.1239 40.6233 11.2102 40.6121 11.3037 40.5993C11.3972 40.5873 11.4923 40.5737 11.5882 40.5585C11.6841 40.5441 11.7735 40.529 11.8574 40.5146C11.9413 40.5002 12.0125 40.4826 12.0716 40.4626C12.1403 40.4379 12.2082 40.4323 12.2746 40.4443C12.3409 40.457 12.4048 40.4778 12.4663 40.5074C12.5279 40.537 12.5846 40.5713 12.6365 40.6105C12.6885 40.6496 12.734 40.6872 12.7732 40.7215C12.8123 40.7559 12.8395 40.7951 12.8547 40.8398C12.8699 40.8838 12.8643 40.9245 12.8403 40.9613C12.8155 40.998 12.7668 41.0276 12.6925 41.05C12.619 41.0723 12.5127 41.0803 12.3752 41.0755C12.2961 41.0707 12.221 41.0683 12.1499 41.0683C12.0788 41.0683 12.0109 41.0683 11.9469 41.0683C11.7895 41.0683 11.6537 41.0707 11.541 41.0755C11.4276 41.0803 11.3341 41.0875 11.2605 41.0979C11.2949 41.157 11.3261 41.2074 11.3532 41.2489C11.3804 41.2905 11.4076 41.3304 11.4347 41.3672C11.4619 41.4039 11.4899 41.4399 11.5194 41.4743C11.549 41.5086 11.5834 41.5478 11.6225 41.5925C11.7408 41.7355 11.8574 41.8562 11.9733 41.9545C12.0892 42.0528 12.2058 42.1391 12.3241 42.2126C12.4424 42.2861 12.5638 42.3516 12.6893 42.4084C12.8139 42.4683 12.9458 42.5234 13.084 42.5778ZM9.35478 40.8278C9.4187 40.8278 9.49621 40.8238 9.58731 40.8166C9.6784 40.8094 9.77589 40.8007 9.87897 40.7911C9.98205 40.7815 10.0859 40.7703 10.189 40.7575C10.2921 40.7455 10.3888 40.7319 10.4767 40.7167C10.4519 40.6576 10.4183 40.5641 10.3768 40.4363C10.3352 40.3084 10.2921 40.1734 10.2473 40.0304C10.2034 39.8873 10.161 39.7499 10.1219 39.6172C10.0827 39.4846 10.0508 39.3807 10.026 39.3072C10.0108 39.3511 9.97805 39.4327 9.92611 39.5509C9.87417 39.6692 9.81504 39.8018 9.74872 39.9496C9.6824 40.0975 9.61447 40.2501 9.54576 40.4075C9.47783 40.5649 9.41391 40.7048 9.35478 40.8278Z" fill="#323232"/>
<path d="M17.3558 39.7938C17.5068 39.9664 17.6226 40.1741 17.7034 40.4179C17.7841 40.6616 17.824 40.9652 17.824 41.3296C17.824 41.3687 17.8224 41.4063 17.82 41.4407C17.8176 41.475 17.816 41.5118 17.816 41.5517C17.8016 41.9065 17.7113 42.1942 17.5451 42.4155C17.3797 42.6369 17.12 42.7671 16.7676 42.8071C16.5359 42.8366 16.2706 42.851 15.9702 42.851C15.7784 42.851 15.5826 42.8446 15.3829 42.8326C15.1839 42.8206 14.9937 42.7991 14.8139 42.7695C14.6341 42.7399 14.4703 42.7032 14.3225 42.6584C14.1747 42.6137 14.0564 42.5602 13.9677 42.4962C13.8447 42.4075 13.7831 42.3164 13.7831 42.2229C13.7736 42.1494 13.7879 42.0751 13.8271 42.0016C13.8662 41.9281 13.911 41.8578 13.9597 41.7914C14.0093 41.7251 14.058 41.6612 14.1076 41.5997C14.1571 41.5381 14.1891 41.4806 14.2035 41.4263C14.2186 41.3719 14.2354 41.3152 14.2554 41.2569C14.2754 41.1977 14.2945 41.145 14.3145 41.0979C14.3345 41.0515 14.3529 41.0116 14.3697 40.9796C14.3864 40.9476 14.4032 40.9317 14.4176 40.9317C14.4424 40.9317 14.4591 40.9756 14.4695 41.0643C14.4791 41.1482 14.4783 41.2425 14.4655 41.3488C14.4536 41.455 14.4472 41.5621 14.4472 41.67C14.4472 41.7731 14.4615 41.853 14.4911 41.9097C14.5207 41.9664 14.5822 42.0264 14.6757 42.0903C14.7788 42.159 14.9282 42.2062 15.1224 42.2309C15.3165 42.2557 15.5147 42.2677 15.7169 42.2677C15.8839 42.2677 16.0341 42.2629 16.1675 42.2533C16.3002 42.2437 16.3937 42.2333 16.448 42.2237C16.5263 42.2038 16.6006 42.1822 16.6694 42.1574C16.7381 42.1327 16.7988 42.0895 16.85 42.028C16.9019 41.9664 16.945 41.8817 16.9794 41.7731C17.0138 41.6652 17.0337 41.5198 17.0385 41.3376C17.0433 41.1554 17.0417 40.998 17.0345 40.8653C17.0273 40.7327 17.009 40.6152 16.9794 40.5145C16.9498 40.4139 16.9107 40.3228 16.8611 40.2413C16.8116 40.1598 16.7477 40.0775 16.6694 39.9936C16.6198 39.9392 16.5719 39.9025 16.5255 39.8825C16.4784 39.8625 16.4113 39.8329 16.3226 39.7938C16.2291 39.7546 16.1292 39.7307 16.0237 39.7235C15.9174 39.7163 15.816 39.7115 15.7177 39.7091C15.6194 39.7067 15.5307 39.7003 15.4516 39.6907C15.3725 39.6811 15.3133 39.654 15.2742 39.6092C15.2494 39.5844 15.2374 39.5429 15.2374 39.4837C15.2374 39.4246 15.255 39.3831 15.2894 39.3583C15.3038 39.3487 15.3301 39.3327 15.3669 39.3104C15.4036 39.288 15.4404 39.2648 15.478 39.24C15.5147 39.2153 15.5507 39.1913 15.585 39.1665C15.6194 39.1418 15.6442 39.1226 15.6585 39.1074C15.7081 39.0578 15.764 38.9795 15.8287 38.8709C15.8927 38.763 15.9542 38.6495 16.0133 38.5313C16.0725 38.413 16.1212 38.3035 16.1612 38.2029C16.2003 38.1022 16.2203 38.0319 16.2203 37.9927C16.2203 37.8944 16.1923 37.8265 16.1356 37.7897C16.0789 37.753 16.0061 37.7346 15.9174 37.7346C15.8383 37.7346 15.7528 37.7458 15.6593 37.7682C15.5659 37.7905 15.4748 37.8177 15.3861 37.8497C15.2974 37.8816 15.2175 37.9128 15.1463 37.9424C15.0752 37.9719 15.0217 37.9943 14.9873 38.0087C15.0017 38.0822 15.0209 38.1517 15.0425 38.2156C15.0648 38.2796 15.0832 38.3371 15.0976 38.389C15.1128 38.441 15.1232 38.4825 15.1312 38.5145C15.1384 38.5464 15.1352 38.5672 15.12 38.5776C15.0904 38.5976 15.0385 38.584 14.965 38.5369C14.8914 38.4905 14.7684 38.3882 14.5958 38.2308C14.5319 38.1669 14.4775 38.1142 14.4336 38.0718C14.3896 38.0303 14.3473 37.9943 14.3081 37.9647C14.269 37.9352 14.2306 37.9072 14.1939 37.88C14.1571 37.8529 14.114 37.8201 14.0644 37.7801C14.0149 37.7458 14.0053 37.6954 14.0348 37.6291C14.0644 37.5628 14.1148 37.4973 14.1859 37.4334C14.257 37.3694 14.3369 37.3143 14.4256 37.2671C14.5143 37.2208 14.5926 37.1992 14.6621 37.204C14.6965 37.2088 14.7284 37.2376 14.758 37.2887C14.7876 37.3407 14.8147 37.4086 14.8395 37.4917C14.913 37.4917 14.9945 37.4909 15.0832 37.4877C15.1719 37.4853 15.243 37.4789 15.2974 37.4693C15.3757 37.4541 15.4843 37.4326 15.6226 37.403C15.76 37.3734 15.9007 37.3439 16.0437 37.3143C16.1867 37.2847 16.317 37.26 16.4352 37.2408C16.5535 37.2208 16.6318 37.2136 16.6718 37.2184C16.7109 37.228 16.7796 37.2552 16.8787 37.2999C16.977 37.3439 17.0729 37.3982 17.1656 37.4621C17.2583 37.526 17.3334 37.5924 17.3925 37.6619C17.4508 37.7306 17.4604 37.7921 17.4221 37.8465C17.3829 37.9008 17.3454 37.9352 17.3086 37.9495C17.2719 37.9647 17.2343 37.9767 17.1951 37.9863C17.156 37.9959 17.1144 38.0111 17.0705 38.0303C17.0265 38.0502 16.9794 38.0894 16.9307 38.1485C16.8811 38.2076 16.814 38.2987 16.7277 38.4218C16.6414 38.5449 16.5551 38.6679 16.4696 38.791C16.3833 38.914 16.3058 39.0227 16.2371 39.1162C16.1683 39.2097 16.1284 39.2592 16.1188 39.264C16.1092 39.264 16.134 39.2656 16.1923 39.268C16.2515 39.2704 16.3002 39.2768 16.3401 39.2864C16.5911 39.3255 16.8036 39.3975 16.9778 39.5005C17.152 39.602 17.2782 39.7011 17.3558 39.7938Z" fill="#323232"/>
<path d="M23.5388 41.0276C23.5388 41.0715 23.5372 41.1139 23.5348 41.153C23.5324 41.1922 23.5308 41.2321 23.5308 41.2713C23.5308 41.3992 23.5356 41.5038 23.5451 41.5853C23.5547 41.6668 23.5651 41.7396 23.5747 41.8035C23.5843 41.8674 23.5955 41.9329 23.6083 41.9993C23.6203 42.0656 23.629 42.1479 23.6338 42.247C23.6338 42.3309 23.6195 42.4132 23.5899 42.4947C23.5603 42.5762 23.522 42.6489 23.4756 42.7128C23.4285 42.7767 23.3757 42.8271 23.3166 42.8638C23.2575 42.9006 23.2007 42.919 23.1464 42.919C23.0969 42.919 23.0441 42.899 22.9874 42.8598C22.9307 42.8207 22.8803 42.7672 22.8364 42.7008C22.7924 42.6345 22.7589 42.5546 22.7365 42.4611C22.7141 42.3676 22.7109 42.2669 22.7253 42.1583C22.7453 42.04 22.7669 41.853 22.7916 41.5973C22.8164 41.3416 22.8332 41.058 22.8436 40.7479C22.8484 40.6448 22.8524 40.5226 22.8548 40.3827C22.8571 40.2421 22.8587 40.0935 22.8587 39.9361V39.4415V38.9612C22.6374 39.2665 22.4129 39.5533 22.1867 39.821C21.9606 40.0895 21.7409 40.338 21.5299 40.5665C21.3182 40.7959 21.1216 41.0012 20.9394 41.1834C20.7572 41.3656 20.5998 41.523 20.4671 41.6557C20.4176 41.6948 20.3577 41.7507 20.2866 41.8219C20.2154 41.893 20.1403 41.9721 20.0612 42.0584C19.9821 42.1447 19.9038 42.2334 19.8247 42.3245C19.7456 42.4156 19.6769 42.5003 19.6177 42.5794C19.4404 42.8303 19.2925 42.9557 19.1751 42.9557C19.0576 42.9557 18.9489 42.8351 18.8498 42.5938C18.8003 42.4859 18.7627 42.3972 18.7356 42.3277C18.7084 42.259 18.6948 42.1974 18.6948 42.1431C18.6948 42.0887 18.7132 42.036 18.75 41.9841C18.7867 41.9321 18.8474 41.8674 18.9305 41.7883C18.9553 41.7635 18.9761 41.7196 18.9937 41.6557C19.0113 41.5917 19.0272 41.5126 19.0416 41.4191C19.0464 41.36 19.0488 41.2961 19.0488 41.2274C19.0488 41.1586 19.0488 41.0819 19.0488 40.9988C19.0488 40.8071 19.0464 40.5889 19.0416 40.3452C19.0368 40.1015 19.0296 39.8506 19.0192 39.5917C19.0097 39.3336 18.9969 39.0739 18.9825 38.8126C18.9681 38.5521 18.9529 38.306 18.9385 38.0743C18.9337 37.9808 18.9202 37.8937 18.8978 37.8122C18.8754 37.7307 18.8522 37.6571 18.8275 37.5908C18.8027 37.5245 18.7819 37.4654 18.7643 37.4134C18.7468 37.3615 18.7412 37.3183 18.746 37.284C18.7508 37.2544 18.7827 37.236 18.8419 37.2288C18.901 37.2216 18.9737 37.2224 19.06 37.2328C19.1463 37.2424 19.2398 37.2608 19.3405 37.288C19.4412 37.3151 19.5338 37.3463 19.6177 37.3807C19.7016 37.415 19.7712 37.4542 19.8279 37.4989C19.8846 37.5429 19.9126 37.5876 19.9126 37.6316C19.9078 37.6659 19.8926 37.6979 19.8686 37.7275C19.8439 37.757 19.8191 37.793 19.7951 37.8345C19.7704 37.8761 19.7472 37.9256 19.7248 37.9824C19.7024 38.0391 19.6913 38.1118 19.6913 38.2005C19.6961 38.2844 19.6984 38.3691 19.6984 38.4554C19.6984 38.5417 19.6984 38.6312 19.6984 38.7247C19.6984 38.8134 19.6984 38.9029 19.6984 38.994C19.6984 39.0851 19.7008 39.177 19.7056 39.2705V39.3224C19.7056 39.4798 19.7064 39.6324 19.7096 39.7803C19.712 39.9281 19.7136 40.0735 19.7136 40.2157C19.7136 40.4027 19.7112 40.5761 19.7064 40.7359C19.7016 40.8957 19.6889 41.0452 19.6697 41.1826C19.6697 41.2809 19.6793 41.3488 19.6992 41.3856C19.7192 41.4223 19.7456 41.4407 19.7808 41.4407C19.8199 41.4407 19.8647 41.4199 19.9134 41.3776C19.9621 41.336 20.0069 41.3001 20.046 41.2705C20.1347 41.197 20.2858 41.0588 20.4999 40.8574C20.7141 40.6552 20.9554 40.4091 21.2239 40.1191C21.4924 39.829 21.768 39.5078 22.0509 39.1554C22.3338 38.8038 22.5887 38.4378 22.8148 38.0591C22.79 37.9312 22.7621 37.8297 22.7301 37.7562C22.6981 37.6827 22.6702 37.622 22.6454 37.5756C22.6206 37.5293 22.6022 37.4909 22.5903 37.4614C22.5783 37.4318 22.5791 37.3974 22.5943 37.3583C22.6286 37.2744 22.6997 37.2328 22.8084 37.2328C22.8771 37.2328 22.9458 37.2472 23.0154 37.2768C23.0841 37.3063 23.1408 37.3407 23.1848 37.3799C23.367 37.4734 23.4948 37.594 23.5691 37.7418C23.6426 37.8897 23.6802 38.0351 23.6802 38.1773C23.6802 38.3004 23.6602 38.4091 23.6211 38.5026L23.6059 38.5689C23.5811 38.6823 23.5691 38.7606 23.5691 38.8054V38.9604C23.5691 39.0691 23.5675 39.2137 23.5651 39.3959C23.5627 39.5781 23.5611 39.7651 23.5611 39.9568C23.5563 40.1095 23.5539 40.2805 23.5539 40.4698C23.5539 40.6592 23.5483 40.8454 23.5388 41.0276Z" fill="#323232"/>
<path d="M29.9706 42.5778C30.064 42.6121 30.1304 42.6441 30.1695 42.6737C30.2087 42.7032 30.2326 42.728 30.2398 42.7472C30.247 42.7671 30.2422 42.7831 30.2247 42.7951C30.2071 42.8071 30.1887 42.8135 30.1695 42.8135C30.0808 42.8231 29.9865 42.8311 29.8851 42.8359C29.7844 42.8407 29.6797 42.8431 29.571 42.8431C29.4432 42.8431 29.3137 42.8391 29.1835 42.8319C29.0532 42.8247 28.9326 42.8119 28.8215 42.7951C28.7104 42.7775 28.6145 42.7568 28.5338 42.732C28.4523 42.7072 28.3948 42.6776 28.3604 42.6433C28.3061 42.5842 28.2486 42.5226 28.187 42.4587C28.1255 42.3948 28.0592 42.3085 27.9873 42.2006C27.9162 42.0927 27.8371 41.9569 27.7508 41.7947C27.6645 41.6325 27.5702 41.4231 27.4663 41.1674C27.368 41.1674 27.2609 41.1698 27.1451 41.1746C27.0292 41.1794 26.9085 41.1858 26.7831 41.193C26.6576 41.2002 26.5346 41.2106 26.4139 41.2225C26.2933 41.2345 26.1814 41.2513 26.0783 41.2705C25.9057 41.5462 25.694 41.8147 25.4431 42.0752C25.1921 42.3364 24.8621 42.585 24.4538 42.8207C24.3947 42.855 24.3403 42.8758 24.2916 42.8838C24.2421 42.891 24.2053 42.8886 24.1805 42.8766C24.1558 42.8638 24.147 42.8431 24.155 42.8135C24.1622 42.7839 24.1933 42.7472 24.2469 42.7024C24.5425 42.4659 24.7822 42.2278 24.9668 41.9865C25.1514 41.7451 25.2976 41.5214 25.4063 41.3144C25.3272 41.324 25.2792 41.3328 25.2625 41.34C25.2449 41.3472 25.2121 41.356 25.1626 41.3656C25.0347 41.3904 24.9364 41.4063 24.8669 41.4135C24.7982 41.4207 24.7367 41.4199 24.6823 41.4095C24.628 41.3999 24.5713 41.3848 24.5121 41.3656C24.453 41.3456 24.4003 41.3224 24.3531 41.2953C24.306 41.2681 24.2708 41.2409 24.2461 41.2138C24.2213 41.1866 24.2165 41.161 24.2317 41.1363C24.2564 41.0923 24.3212 41.0452 24.4274 40.9956C24.5329 40.9461 24.7143 40.9221 24.97 40.9221C25.0339 40.9221 25.1074 40.9213 25.1913 40.9181C25.2752 40.9157 25.4007 40.9021 25.5677 40.8774C25.7643 40.4243 25.9233 40.0144 26.044 39.6476C26.1646 39.2808 26.2557 38.9644 26.3172 38.6991C26.3788 38.433 26.4179 38.2205 26.4355 38.0607C26.4531 37.9008 26.4587 37.7986 26.4539 37.7546C26.4491 37.7298 26.4379 37.7003 26.4203 37.6659C26.4027 37.6316 26.3868 37.5956 26.3724 37.5588C26.3572 37.5221 26.3452 37.4853 26.3356 37.4478C26.326 37.411 26.3236 37.3775 26.3284 37.3479C26.338 37.3135 26.3852 37.2864 26.4691 37.2664C26.553 37.2464 26.6512 37.2368 26.7647 37.2368C26.863 37.2368 26.9653 37.2464 27.0707 37.2664C27.1762 37.2864 27.2737 37.3207 27.3624 37.3695C27.4559 37.4238 27.515 37.4717 27.5398 37.5133C27.5646 37.5549 27.5718 37.5924 27.5622 37.6244C27.5526 37.6563 27.535 37.6835 27.5102 37.7059C27.4855 37.7282 27.4711 37.749 27.4663 37.769C27.4663 37.7842 27.4551 37.8257 27.4327 37.8945C27.4104 37.9632 27.3824 38.0471 27.348 38.1454C27.3137 38.2436 27.2793 38.3483 27.2449 38.4594C27.2106 38.5705 27.1786 38.6727 27.1491 38.7654C27.1882 38.8837 27.2386 39.0251 27.3001 39.1897C27.3616 39.3551 27.4279 39.5261 27.4998 39.7027C27.571 39.8801 27.6453 40.0511 27.7212 40.2157C27.7971 40.3803 27.8674 40.5194 27.9313 40.6328C28.0097 40.6233 28.0959 40.6121 28.1894 40.5993C28.2829 40.5873 28.378 40.5737 28.4739 40.5585C28.5698 40.5441 28.6593 40.529 28.7432 40.5146C28.8271 40.5002 28.8982 40.4826 28.9573 40.4626C29.0261 40.4379 29.094 40.4323 29.1603 40.4443C29.2266 40.457 29.2905 40.4778 29.3521 40.5074C29.4136 40.537 29.4703 40.5713 29.5215 40.6105C29.5734 40.6496 29.619 40.6872 29.6581 40.7215C29.6973 40.7559 29.7244 40.7951 29.7396 40.8398C29.7548 40.8838 29.7492 40.9245 29.7244 40.9613C29.6997 40.998 29.6509 41.0276 29.5766 41.05C29.5031 41.0723 29.3968 41.0803 29.2594 41.0755C29.1803 41.0707 29.1052 41.0683 29.0341 41.0683C28.9629 41.0683 28.895 41.0683 28.8311 41.0683C28.6737 41.0683 28.5378 41.0707 28.4252 41.0755C28.3117 41.0803 28.2182 41.0875 28.1447 41.0979C28.1791 41.157 28.2102 41.2074 28.2374 41.2489C28.2646 41.2905 28.2917 41.3304 28.3189 41.3672C28.3461 41.4039 28.374 41.4399 28.4036 41.4743C28.4332 41.5086 28.4675 41.5478 28.5067 41.5925C28.6249 41.7355 28.7416 41.8562 28.8575 41.9545C28.9733 42.0528 29.09 42.1391 29.2082 42.2126C29.3265 42.2861 29.448 42.3516 29.5734 42.4084C29.7005 42.4683 29.8323 42.5234 29.9706 42.5778ZM26.2413 40.8278C26.3052 40.8278 26.3828 40.8238 26.4739 40.8166C26.5649 40.8094 26.6624 40.8007 26.7655 40.7911C26.8686 40.7815 26.9725 40.7703 27.0755 40.7575C27.1786 40.7455 27.2753 40.7319 27.3632 40.7167C27.3384 40.6576 27.3049 40.5641 27.2633 40.4363C27.2218 40.3084 27.1786 40.1734 27.1339 40.0304C27.0899 39.8873 27.0476 39.7499 27.0084 39.6172C26.9693 39.4846 26.9373 39.3807 26.9125 39.3072C26.8974 39.3511 26.8646 39.4327 26.8127 39.5509C26.7607 39.6692 26.7016 39.8018 26.6353 39.9496C26.5689 40.0975 26.501 40.2501 26.4323 40.4075C26.3644 40.5649 26.3005 40.7048 26.2413 40.8278Z" fill="#323232"/>
<path d="M37.6271 37.4238C37.7158 37.4877 37.7869 37.5516 37.8412 37.6155C37.8956 37.6795 37.9339 37.7402 37.9555 37.7961C37.9779 37.8529 37.9875 37.9048 37.9851 37.9511C37.9827 37.9983 37.9739 38.0358 37.9595 38.0654C37.9443 38.095 37.9251 38.1389 37.9004 38.198C37.8756 38.2572 37.85 38.3259 37.8229 38.405C37.7957 38.4841 37.7733 38.5712 37.7565 38.6671C37.739 38.763 37.731 38.8629 37.731 38.9659C37.7262 39.0395 37.7238 39.1186 37.7238 39.2025C37.7238 39.2864 37.7238 39.3703 37.7238 39.4534C37.7238 39.7682 37.7326 40.0846 37.7493 40.4027C37.7661 40.7199 37.7877 41.0116 37.8125 41.2776C37.8221 41.3416 37.8325 41.3967 37.842 41.4438C37.8516 41.491 37.8604 41.5349 37.8676 41.5765C37.8748 41.618 37.8796 41.6604 37.882 41.7019C37.8844 41.7435 37.886 41.789 37.886 41.8386C37.886 41.8777 37.8844 41.9201 37.882 41.964C37.8796 42.008 37.8756 42.0599 37.8708 42.1191C37.8612 42.2078 37.8436 42.2949 37.8189 42.3811C37.7941 42.4674 37.7621 42.5458 37.723 42.6177C37.6838 42.6888 37.6383 42.7471 37.5863 42.7911C37.5344 42.835 37.4769 42.8574 37.4129 42.8574C37.3538 42.8574 37.2963 42.8366 37.2395 42.7943C37.1828 42.7527 37.1333 42.6944 37.0917 42.6209C37.0502 42.5474 37.0182 42.4595 36.9958 42.3588C36.9735 42.2581 36.9679 42.1486 36.9775 42.0304C37.0022 41.7699 37.0214 41.4534 37.0366 41.0819C37.051 40.7103 37.059 40.3156 37.059 39.8969C37.059 39.6603 37.055 39.4294 37.0478 39.2025C37.0406 38.9763 37.0294 38.7622 37.0142 38.56C37.0046 38.4617 36.9727 38.3826 36.9183 38.3235C36.864 38.2644 36.8105 38.2124 36.7561 38.1685C36.7465 38.1589 36.7266 38.1477 36.697 38.1349C36.6674 38.1229 36.6219 38.1102 36.5611 38.0982C36.4996 38.0862 36.4213 38.075 36.3254 38.0646C36.2295 38.055 36.1081 38.0502 35.961 38.0502C35.9171 38.0502 35.8716 38.0502 35.8252 38.0502C35.7789 38.0502 35.7285 38.0526 35.6742 38.0574C35.6494 38.0622 35.6175 38.0646 35.5783 38.0646C35.5391 38.0646 35.4952 38.0646 35.4456 38.0646C35.3969 38.0646 35.345 38.0646 35.2914 38.0646C35.2371 38.0646 35.1764 38.0694 35.1076 38.079L35.0853 38.1677C35.0605 38.2364 35.0469 38.3403 35.0445 38.4777C35.0421 38.616 35.0405 38.7462 35.0405 38.8693V39.0906C35.0405 39.1401 35.0405 39.2432 35.0405 39.4006C35.0405 39.5581 35.0429 39.7442 35.0477 39.9584C35.0525 40.1725 35.0573 40.4011 35.0621 40.6448C35.0669 40.8885 35.0741 41.121 35.0845 41.3424C35.0941 41.5493 35.1092 41.7227 35.1284 41.8626C35.1484 42.0032 35.1556 42.1103 35.1508 42.1838C35.1412 42.3116 35.1021 42.4315 35.0357 42.5418C34.9686 42.6528 34.8807 42.708 34.7712 42.708C34.7161 42.708 34.6546 42.6896 34.5843 42.6528C34.5139 42.6161 34.4452 42.5553 34.3757 42.4722C34.3461 42.4331 34.3254 42.3875 34.3126 42.3356C34.3006 42.2837 34.2942 42.2285 34.2942 42.1694C34.2942 42.0559 34.3078 41.9385 34.335 41.8146C34.3621 41.6916 34.3805 41.5885 34.3901 41.5046C34.3997 41.4454 34.4085 41.3583 34.4157 41.2425C34.4228 41.1266 34.4268 40.9508 34.4268 40.7143C34.4268 40.5177 34.4252 40.2996 34.4228 40.0607C34.4205 39.8218 34.4141 39.5844 34.4045 39.3479C34.3997 39.1066 34.3933 38.902 34.3861 38.735C34.3789 38.568 34.3701 38.4689 34.3605 38.4394C34.3405 38.3659 34.327 38.3019 34.3198 38.2476C34.3126 38.1933 34.3062 38.1397 34.3014 38.0854C34.1336 38.0902 33.965 38.0974 33.7972 38.1078C33.6294 38.1173 33.4672 38.1261 33.3114 38.1333C33.1555 38.1405 33.0101 38.1493 32.8743 38.1589C32.7384 38.1685 32.6186 38.1765 32.5147 38.1813C32.5051 38.2204 32.4971 38.2652 32.4923 38.3139C32.4875 38.3635 32.4851 38.4146 32.4851 38.4689C32.4851 38.5233 32.4859 38.612 32.4891 38.735C32.4915 38.8581 32.4955 39.0067 32.5003 39.1817C32.5051 39.3567 32.5091 39.5501 32.5115 39.761C32.5139 39.9728 32.5155 40.1941 32.5155 40.4258C32.5155 40.628 32.5139 40.8342 32.5115 41.0459C32.5091 41.2577 32.5067 41.4558 32.5043 41.6404C32.5019 41.825 32.4971 41.9824 32.4899 42.1127C32.4827 42.2429 32.4715 42.3284 32.4572 42.3676C32.4276 42.4467 32.3812 42.5186 32.3181 42.5857C32.255 42.652 32.1895 42.708 32.1207 42.7519C32.0528 42.7959 31.9881 42.8286 31.9274 42.8478C31.8666 42.8678 31.8235 42.8702 31.7987 42.855C31.7692 42.8406 31.7124 42.7911 31.6285 42.7072C31.5446 42.6233 31.4559 42.5298 31.3624 42.4267C31.2689 42.3236 31.1866 42.2261 31.1147 42.135C31.0436 42.0439 31.0076 41.984 31.0076 41.9545C31.0076 41.9249 31.03 41.9105 31.074 41.9105C31.1131 41.9105 31.1611 41.9129 31.2178 41.9177C31.2745 41.9225 31.3321 41.9249 31.3912 41.9249C31.4455 41.9249 31.4943 41.9225 31.539 41.9177C31.583 41.9129 31.6253 41.8977 31.6645 41.8737C31.7036 41.849 31.7372 41.7843 31.7644 41.678C31.7915 41.5725 31.8139 41.4438 31.8307 41.2936C31.8483 41.1434 31.8603 40.9796 31.8674 40.803C31.8746 40.6256 31.8786 40.4482 31.8786 40.2716C31.8786 40.0799 31.8762 39.8929 31.8714 39.7107C31.8666 39.5285 31.8626 39.3639 31.8602 39.2161C31.8579 39.0682 31.8539 38.9444 31.8491 38.8429C31.8443 38.7422 31.8419 38.6743 31.8419 38.6399C31.8419 38.5664 31.8379 38.4969 31.8307 38.433C31.8235 38.3691 31.8147 38.3051 31.8051 38.2412C31.702 38.2508 31.6069 38.262 31.5206 38.2748C31.4343 38.2867 31.3369 38.2931 31.229 38.2931C31.1203 38.2931 31.0236 38.2812 30.9373 38.2564C30.851 38.2316 30.7887 38.2076 30.7488 38.1829C30.6896 38.1485 30.6441 38.1102 30.6121 38.0686C30.5801 38.0271 30.5578 37.9871 30.5458 37.9503C30.5338 37.9136 30.5282 37.8824 30.5314 37.8576C30.5338 37.8329 30.5378 37.8185 30.5426 37.8137C30.5474 37.8089 30.5841 37.8041 30.6537 37.7993C30.7224 37.7945 30.8103 37.7881 30.9158 37.7809C31.0212 37.7737 31.1435 37.7674 31.2809 37.7626C31.4184 37.7578 31.559 37.7506 31.702 37.7402C31.6581 37.6123 31.6157 37.5053 31.5766 37.419C31.5374 37.3327 31.527 37.2775 31.547 37.2528C31.5622 37.228 31.6261 37.2256 31.7388 37.2456C31.8523 37.2655 31.9737 37.2975 32.104 37.3415C32.2342 37.3854 32.3525 37.4349 32.4587 37.4893C32.5642 37.5436 32.6226 37.5924 32.6321 37.6371C32.6321 37.6715 32.6297 37.6962 32.625 37.7106C32.7232 37.7058 32.8543 37.6986 33.0165 37.6882C33.1787 37.6787 33.3585 37.6675 33.5559 37.6547C33.7524 37.6427 33.9634 37.6291 34.1871 37.6139C34.4109 37.5996 34.6338 37.5844 34.8551 37.57C35.0765 37.5556 35.2898 37.5396 35.4936 37.522C35.6982 37.5053 35.8835 37.4861 36.0513 37.4669C36.2431 37.4421 36.3933 37.407 36.502 37.3598C36.6099 37.3135 36.6842 37.2823 36.7234 37.2671C36.8312 37.228 36.9375 37.208 37.0406 37.208C37.1245 37.208 37.214 37.224 37.3099 37.2559C37.4089 37.2895 37.5136 37.3455 37.6271 37.4238Z" fill="#323232"/>
<path d="M42.5374 38.8564C42.5222 38.7677 42.5222 38.6782 42.5374 38.5872C42.5517 38.4961 42.5597 38.4066 42.5597 38.3179C42.5597 38.2292 42.5422 38.1453 42.5078 38.067C42.4734 37.9887 42.3967 37.9143 42.2793 37.8456C42.1954 37.7913 42.0987 37.7545 41.9876 37.7346C41.8765 37.7146 41.7599 37.705 41.6368 37.705C41.4299 37.705 41.2341 37.7226 41.0495 37.7569C40.8649 37.7913 40.7307 37.8208 40.6468 37.8456C40.5533 37.8656 40.455 37.9032 40.3511 37.9599C40.248 38.0166 40.1505 38.0965 40.0595 38.1996C39.9684 38.3027 39.8901 38.4297 39.8229 38.5792C39.7566 38.7294 39.7159 38.9076 39.7015 39.1137C39.6871 39.3303 39.6791 39.5245 39.6791 39.6963C39.6791 39.9567 39.6935 40.1917 39.7231 40.4002C39.7526 40.6088 39.7942 40.8093 39.8485 41.0011C39.9172 41.2568 40.0051 41.4694 40.1106 41.6388C40.2161 41.8082 40.3287 41.94 40.4462 42.0327C40.5836 42.1406 40.7307 42.2173 40.8857 42.2612C41.0407 42.3052 41.1997 42.3276 41.3619 42.3276C41.5345 42.3276 41.7055 42.3076 41.8749 42.2684C42.0443 42.2293 42.2025 42.1821 42.3472 42.1278C42.4926 42.0735 42.6205 42.0199 42.7307 41.9656C42.841 41.9113 42.9265 41.8697 42.9856 41.8401C43.0152 41.8258 43.0432 41.8218 43.0703 41.829C43.0975 41.8362 43.1231 41.8401 43.1478 41.8401C43.2214 41.8401 43.2621 41.8793 43.2701 41.9584C43.2773 42.0375 43.215 42.1206 43.0815 42.2093C43.0176 42.2485 42.9089 42.3052 42.7563 42.3787C42.6037 42.4522 42.4255 42.5249 42.2209 42.5969C42.0164 42.668 41.7998 42.7295 41.5713 42.7814C41.3428 42.8334 41.1198 42.8589 40.9033 42.8589C40.7602 42.8589 40.626 42.8454 40.5005 42.8182C40.3751 42.791 40.2608 42.7431 40.1569 42.6744C39.9947 42.5713 39.8365 42.4083 39.6847 42.1869C39.5321 41.9656 39.397 41.6995 39.2788 41.3895C39.1653 41.0794 39.0742 40.7302 39.0055 40.3411C38.9368 39.952 38.9072 39.4821 38.9168 38.9308C38.9216 38.7238 38.9575 38.5256 39.0239 38.3362C39.0902 38.1469 39.1861 37.9783 39.3115 37.8304C39.437 37.6826 39.5912 37.5588 39.7734 37.4573C39.9556 37.3566 40.1697 37.2887 40.4158 37.2543C40.7259 37.2104 41.0487 37.188 41.3827 37.188C41.7319 37.188 42.0619 37.2184 42.372 37.2775C42.682 37.3374 42.9377 37.4325 43.1399 37.562C43.2877 37.6666 43.3612 37.7609 43.3612 37.8448C43.3612 37.9039 43.3388 37.9583 43.2949 38.007C43.2509 38.0566 43.199 38.1045 43.1399 38.1509C43.0807 38.198 43.0232 38.2459 42.9665 38.2947C42.9097 38.3442 42.869 38.401 42.845 38.4641C42.825 38.5232 42.8042 38.5848 42.7819 38.6487C42.7595 38.7126 42.7379 38.7717 42.7155 38.8261C42.6932 38.8804 42.6716 38.9244 42.6492 38.9587C42.6269 38.9931 42.6061 39.0107 42.5861 39.0107C42.5597 39.0115 42.5422 38.9595 42.5374 38.8564Z" fill="#323232"/>
<path d="M47.8312 41.876C47.9791 41.9895 48.1597 42.0782 48.3738 42.1421C48.588 42.206 48.7949 42.258 48.9939 42.2971C49.1936 42.3363 49.3638 42.3682 49.5069 42.393C49.6499 42.4178 49.721 42.4473 49.721 42.4817C49.721 42.4961 49.6843 42.5161 49.61 42.5408C49.5364 42.5656 49.4398 42.5912 49.3223 42.6183C49.204 42.6455 49.0738 42.6735 48.9307 42.703C48.7877 42.7326 48.6479 42.7582 48.5096 42.7805C48.3714 42.8029 48.246 42.8197 48.1333 42.8325C48.0198 42.8445 47.9367 42.8485 47.8824 42.8437C47.7937 42.8389 47.6898 42.7933 47.5691 42.707C47.4493 42.6207 47.3198 42.5105 47.1832 42.3746C47.0458 42.2396 46.9035 42.0894 46.7565 41.924C46.6095 41.7593 46.468 41.5915 46.3338 41.4221C46.1987 41.2519 46.0725 41.0897 45.955 40.9347C45.8376 40.7797 45.7393 40.6479 45.661 40.54V41.1089V41.3894C45.661 41.6259 45.657 41.8337 45.6498 42.0134C45.6426 42.1932 45.629 42.3099 45.609 42.3642C45.5643 42.4921 45.5092 42.5944 45.4444 42.6703C45.3797 42.747 45.3158 42.8029 45.2535 42.8397C45.1911 42.8764 45.1328 42.8988 45.0777 42.906C45.0225 42.9132 44.9858 42.91 44.9658 42.8948C44.941 42.8804 44.8947 42.8397 44.8252 42.7734C44.7564 42.707 44.6813 42.6303 44.5998 42.544C44.5183 42.4577 44.4408 42.3682 44.3673 42.2747C44.2938 42.1813 44.2418 42.1021 44.2123 42.0382C44.1923 42.0135 44.1995 41.9967 44.2346 41.9863C44.2594 41.9767 44.2922 41.9743 44.3345 41.9791C44.3761 41.9839 44.4168 41.9863 44.456 41.9863C44.5399 41.9863 44.6158 41.9863 44.6853 41.9863C44.754 41.9863 44.8132 41.9743 44.8627 41.9495C44.9115 41.9248 44.9514 41.8816 44.981 41.8201C45.0105 41.7585 45.0273 41.6635 45.0329 41.5356C45.0425 41.383 45.0473 41.2328 45.0473 41.0849C45.0473 40.9371 45.0473 40.7925 45.0473 40.6494C45.0473 40.3834 45.0449 40.1181 45.0401 39.852C45.0353 39.5859 45.0305 39.3054 45.0249 39.0106C45.0201 38.7844 44.9993 38.5687 44.9618 38.3649C44.925 38.1604 44.8867 37.9806 44.8475 37.8255C44.8084 37.6705 44.7764 37.5427 44.7516 37.442C44.7269 37.3413 44.7221 37.2758 44.7373 37.2462C44.7516 37.2215 44.8148 37.2207 44.9258 37.2422C45.0369 37.2646 45.156 37.2974 45.283 37.3421C45.4101 37.3861 45.5267 37.4372 45.633 37.4931C45.7393 37.5499 45.7952 37.6002 45.8 37.6442C45.8048 37.6881 45.8 37.7337 45.7848 37.7808C45.7705 37.828 45.7545 37.8807 45.7369 37.9398C45.7193 37.9989 45.7025 38.0677 45.685 38.1468C45.6674 38.2259 45.6594 38.3194 45.6594 38.4272L45.6818 39.8448C45.7553 39.9583 45.8336 40.0581 45.9175 40.1436C46.0006 40.2299 46.0741 40.3026 46.138 40.3618C46.1724 40.3666 46.2387 40.3226 46.337 40.2291C46.4353 40.1356 46.5455 40.011 46.6678 39.856C46.7909 39.701 46.9195 39.5228 47.0537 39.3206C47.1888 39.1184 47.3126 38.9083 47.4253 38.6893C47.538 38.4704 47.6315 38.2539 47.705 38.0397C47.7785 37.8256 47.8153 37.6274 47.8153 37.4452C47.8153 37.3613 47.8336 37.3014 47.8704 37.2646C47.9071 37.2279 47.9527 37.2095 48.007 37.2095C48.0861 37.2095 48.1708 37.2414 48.2619 37.3054C48.353 37.3693 48.4257 37.4508 48.4801 37.5491C48.5144 37.6082 48.5376 37.6673 48.5504 37.7265C48.5624 37.7856 48.5688 37.8447 48.5688 37.9039C48.5688 38.0956 48.5096 38.285 48.3914 38.4728C48.2731 38.6598 48.1405 38.8444 47.9926 39.0265C47.8304 39.2383 47.681 39.4189 47.546 39.5691C47.4101 39.7193 47.2815 39.856 47.1584 39.979C47.0354 40.1021 46.9171 40.2203 46.8044 40.3338C46.691 40.4473 46.5727 40.5727 46.4497 40.7102C46.5679 40.8428 46.6758 40.9547 46.7749 41.0458C46.8732 41.1369 46.973 41.2232 47.0737 41.3039C47.1744 41.3846 47.2855 41.4685 47.4061 41.5548C47.5276 41.6411 47.669 41.7482 47.8312 41.876Z" fill="#323232"/>
<path d="M55.0379 41.0276C55.0379 41.0715 55.0363 41.1139 55.0339 41.153C55.0315 41.1922 55.0299 41.2321 55.0299 41.2713C55.0299 41.3992 55.0347 41.5038 55.0451 41.5853C55.0547 41.6668 55.0651 41.7396 55.0746 41.8035C55.0842 41.8674 55.0954 41.9329 55.1082 41.9993C55.1202 42.0656 55.129 42.1479 55.1338 42.247C55.1338 42.3309 55.1194 42.4132 55.0898 42.4947C55.0603 42.5762 55.0219 42.6489 54.9756 42.7128C54.9284 42.7767 54.8757 42.8271 54.8166 42.8638C54.7574 42.9006 54.7007 42.919 54.6472 42.919C54.5976 42.919 54.5449 42.899 54.4881 42.8598C54.4314 42.8207 54.3811 42.7672 54.3371 42.7008C54.2932 42.6345 54.2596 42.5546 54.2372 42.4611C54.2149 42.3676 54.2117 42.2669 54.226 42.1583C54.246 42.04 54.2676 41.853 54.2924 41.5973C54.3171 41.3416 54.3339 41.058 54.3443 40.7479C54.3491 40.6448 54.3531 40.5226 54.3555 40.3827C54.3579 40.2421 54.3595 40.0935 54.3595 39.9361V39.4415V38.9612C54.1381 39.2665 53.9136 39.5533 53.6875 39.821C53.4613 40.0895 53.2416 40.338 53.0306 40.5665C52.8189 40.7959 52.6223 41.0012 52.4401 41.1834C52.2579 41.3656 52.1005 41.523 51.9679 41.6557C51.9183 41.6948 51.8584 41.7507 51.7873 41.8219C51.7162 41.893 51.6411 41.9721 51.562 42.0584C51.4829 42.1447 51.4045 42.2334 51.3254 42.3245C51.2463 42.4156 51.1776 42.5003 51.1185 42.5794C50.9411 42.8303 50.7933 42.9557 50.6758 42.9557C50.5583 42.9557 50.4497 42.8351 50.3506 42.5938C50.301 42.4859 50.2635 42.3972 50.2363 42.3277C50.2091 42.259 50.1956 42.1974 50.1956 42.1431C50.1956 42.0887 50.2139 42.036 50.2507 41.9841C50.2875 41.9321 50.3474 41.8674 50.4313 41.7883C50.4561 41.7635 50.4768 41.7196 50.4944 41.6557C50.5112 41.5917 50.528 41.5126 50.5424 41.4191C50.5472 41.36 50.5495 41.2961 50.5495 41.2274C50.5495 41.1586 50.5495 41.0819 50.5495 40.9988C50.5495 40.8071 50.5472 40.5889 50.5424 40.3452C50.5376 40.1015 50.5304 39.8506 50.52 39.5917C50.5104 39.3336 50.4976 39.0739 50.4832 38.8126C50.4688 38.5521 50.4537 38.306 50.4393 38.0743C50.4345 37.9808 50.4209 37.8937 50.3985 37.8122C50.3761 37.7307 50.353 37.6571 50.3282 37.5908C50.3034 37.5245 50.2827 37.4654 50.2651 37.4134C50.2475 37.3615 50.2419 37.3183 50.2467 37.284C50.2515 37.2544 50.2835 37.236 50.3426 37.2288C50.4017 37.2216 50.4744 37.2224 50.5607 37.2328C50.647 37.2424 50.7405 37.2608 50.8412 37.288C50.9419 37.3151 51.0346 37.3463 51.1185 37.3807C51.2024 37.415 51.2719 37.4542 51.3286 37.4989C51.3854 37.5429 51.4133 37.5876 51.4133 37.6316C51.4085 37.6659 51.3934 37.6979 51.3694 37.7275C51.3446 37.757 51.3198 37.793 51.2959 37.8345C51.2711 37.8761 51.2479 37.9256 51.2256 37.9824C51.2032 38.0391 51.192 38.1118 51.192 38.2005C51.1968 38.2844 51.1992 38.3691 51.1992 38.4554C51.1992 38.5417 51.1992 38.6312 51.1992 38.7247C51.1992 38.8134 51.1992 38.9029 51.1992 38.994C51.1992 39.0851 51.2016 39.177 51.2064 39.2705V39.3224C51.2064 39.4798 51.2072 39.6324 51.2104 39.7803C51.2128 39.9281 51.2144 40.0735 51.2144 40.2157C51.2144 40.4027 51.212 40.5761 51.2072 40.7359C51.2024 40.8957 51.1896 41.0452 51.1704 41.1826C51.1704 41.2809 51.18 41.3488 51.2 41.3856C51.22 41.4223 51.2463 41.4407 51.2815 41.4407C51.3206 41.4407 51.3654 41.4199 51.4141 41.3776C51.4637 41.336 51.5076 41.3001 51.5468 41.2705C51.6355 41.197 51.7865 41.0588 52.0006 40.8574C52.2148 40.6552 52.4561 40.4091 52.7246 40.1191C52.9931 39.829 53.2688 39.5078 53.5516 39.1554C53.8345 38.8038 54.0894 38.4378 54.3155 38.0591C54.2908 37.9312 54.2628 37.8297 54.2308 37.7562C54.1989 37.6827 54.1701 37.622 54.1461 37.5756C54.1214 37.5293 54.103 37.4909 54.091 37.4614C54.079 37.4318 54.0798 37.3974 54.095 37.3583C54.1294 37.2744 54.2005 37.2328 54.3091 37.2328C54.3779 37.2328 54.4466 37.2472 54.5161 37.2768C54.5848 37.3063 54.6416 37.3407 54.6855 37.3799C54.8677 37.4734 54.9955 37.594 55.0698 37.7418C55.1434 37.8897 55.1809 38.0351 55.1809 38.1773C55.1809 38.3004 55.1609 38.4091 55.1218 38.5026L55.1074 38.5689C55.0826 38.6823 55.0706 38.7606 55.0706 38.8054V38.9604C55.0706 39.0691 55.0691 39.2137 55.0667 39.3959C55.0643 39.5781 55.0627 39.7651 55.0627 39.9568C55.0579 40.1095 55.0555 40.2805 55.0555 40.4698C55.0531 40.6592 55.0475 40.8454 55.0379 41.0276Z" fill="#323232"/>
<path d="M60.9599 41.0274C60.9599 41.0713 60.9583 41.1137 60.9559 41.1528C60.9535 41.192 60.9519 41.2319 60.9519 41.2711C60.9519 41.399 60.9567 41.5036 60.9671 41.5851C60.9767 41.6666 60.9871 41.7394 60.9966 41.8033C61.0062 41.8672 61.0174 41.9327 61.0302 41.9991C61.0422 42.0654 61.051 42.1477 61.0558 42.2468C61.0558 42.3307 61.0414 42.413 61.0118 42.4945C60.9823 42.576 60.9439 42.6487 60.8976 42.7126C60.8504 42.7765 60.7977 42.8269 60.7385 42.8636C60.6794 42.9004 60.6227 42.9188 60.5691 42.9188C60.5196 42.9188 60.4669 42.8988 60.4101 42.8596C60.3534 42.8205 60.3031 42.767 60.2591 42.7006C60.2152 42.6343 60.1816 42.5544 60.1592 42.4609C60.1369 42.3674 60.1337 42.2667 60.148 42.1581C60.168 42.0398 60.1896 41.8528 60.2144 41.5971C60.2391 41.3414 60.2559 41.0578 60.2663 40.7477C60.2711 40.6446 60.2751 40.5224 60.2775 40.3825C60.2799 40.2419 60.2815 40.0933 60.2815 39.9359V39.4413V38.961C60.0601 39.2663 59.8356 39.5531 59.6095 39.8208C59.3833 40.0893 59.1636 40.3378 58.9526 40.5663C58.7409 40.7957 58.5443 41.001 58.3621 41.1832C58.1799 41.3654 58.0225 41.5228 57.8899 41.6555C57.8403 41.6946 57.7804 41.7505 57.7093 41.8217C57.6382 41.8928 57.5631 41.9719 57.484 42.0582C57.4049 42.1445 57.3265 42.2332 57.2474 42.3243C57.1683 42.4154 57.0996 42.5001 57.0405 42.5792C56.8631 42.8301 56.7153 42.9555 56.5978 42.9555C56.4803 42.9555 56.3717 42.8349 56.2726 42.5936C56.223 42.4857 56.1855 42.397 56.1583 42.3275C56.1311 42.2588 56.1176 42.1972 56.1176 42.1429C56.1176 42.0885 56.1359 42.0358 56.1727 41.9839C56.2095 41.9319 56.2694 41.8672 56.3533 41.7881C56.3781 41.7633 56.3988 41.7194 56.4164 41.6555C56.4332 41.5915 56.45 41.5124 56.4644 41.4189C56.4691 41.3598 56.4715 41.2959 56.4715 41.2272C56.4715 41.1584 56.4715 41.0817 56.4715 40.9986C56.4715 40.8069 56.4691 40.5887 56.4644 40.345C56.4596 40.1013 56.4524 39.8504 56.442 39.5915C56.4324 39.3334 56.4196 39.0737 56.4052 38.8124C56.3908 38.5519 56.3757 38.3058 56.3613 38.0741C56.3565 37.9806 56.3429 37.8935 56.3205 37.812C56.2981 37.7305 56.275 37.6569 56.2502 37.5906C56.2254 37.5243 56.2047 37.4652 56.1871 37.4132C56.1695 37.3613 56.1639 37.3181 56.1687 37.2838C56.1735 37.2542 56.2055 37.2358 56.2646 37.2286C56.3237 37.2214 56.3964 37.2223 56.4827 37.2326C56.569 37.2422 56.6625 37.2606 56.7632 37.2878C56.8639 37.3149 56.9566 37.3461 57.0405 37.3805C57.1244 37.4148 57.1939 37.454 57.2506 37.4987C57.3074 37.5427 57.3353 37.5874 57.3353 37.6314C57.3305 37.6657 57.3154 37.6977 57.2914 37.7273C57.2666 37.7568 57.2418 37.7928 57.2179 37.8343C57.1931 37.8759 57.1699 37.9254 57.1475 37.9822C57.1252 38.0389 57.114 38.1116 57.114 38.2003C57.1188 38.2842 57.1212 38.3689 57.1212 38.4552C57.1212 38.5415 57.1212 38.631 57.1212 38.7245C57.1212 38.8132 57.1212 38.9027 57.1212 38.9938C57.1212 39.0849 57.1236 39.1768 57.1284 39.2703V39.3222C57.1284 39.4796 57.1292 39.6322 57.1324 39.7801C57.1348 39.9279 57.1364 40.0733 57.1364 40.2155C57.1364 40.4025 57.134 40.5759 57.1292 40.7357C57.1244 40.8955 57.1116 41.045 57.0924 41.1824C57.0924 41.2807 57.102 41.3486 57.122 41.3854C57.142 41.4221 57.1683 41.4405 57.2035 41.4405C57.2426 41.4405 57.2874 41.4197 57.3361 41.3774C57.3857 41.3358 57.4296 41.2999 57.4688 41.2703C57.5575 41.1968 57.7085 41.0586 57.9226 40.8572C58.1368 40.655 58.3781 40.4089 58.6466 40.1189C58.9151 39.8288 59.1908 39.5076 59.4736 39.1552C59.7565 38.8036 60.0114 38.4376 60.2375 38.0589C60.2128 37.931 60.1848 37.8295 60.1528 37.756C60.1209 37.6825 60.0921 37.6218 60.0681 37.5754C60.0434 37.5291 60.025 37.4907 60.013 37.4612C60.001 37.4316 60.0018 37.3972 60.017 37.3581C60.0514 37.2742 60.1225 37.2326 60.2311 37.2326C60.2999 37.2326 60.3686 37.247 60.4381 37.2766C60.5068 37.3061 60.5636 37.3405 60.6075 37.3797C60.7897 37.4732 60.9175 37.5938 60.9918 37.7416C61.0654 37.8895 61.1029 38.0349 61.1029 38.1771C61.1029 38.3002 61.0829 38.4089 61.0438 38.5024L61.0294 38.5687C61.0046 38.6821 60.9926 38.7604 60.9926 38.8052V38.9602C60.9926 39.0689 60.9911 39.2135 60.9887 39.3957C60.9863 39.5779 60.9847 39.7649 60.9847 39.9566C60.9799 40.1093 60.9775 40.2803 60.9775 40.4697C60.9743 40.659 60.9695 40.8452 60.9599 41.0274ZM57.5335 36.4416C57.2283 36.2594 57.1076 36.1315 57.1715 36.058C57.2155 36.0037 57.301 35.9989 57.4264 36.0428C57.5519 36.0868 57.7381 36.1459 57.9842 36.2202C58.0337 36.2354 58.0952 36.2522 58.1688 36.2722C58.2423 36.2921 58.3166 36.3089 58.3901 36.3241C58.4636 36.3393 58.5331 36.3513 58.5971 36.3609C58.661 36.3704 58.7081 36.3752 58.7377 36.3752C58.8168 36.3705 58.9015 36.3569 58.9926 36.3345C59.0837 36.3121 59.1748 36.2865 59.2659 36.257C59.357 36.2274 59.4441 36.1971 59.528 36.1651C59.6119 36.1331 59.6854 36.1052 59.7493 36.0804C59.8276 36.0508 59.8883 36.0396 59.9299 36.0468C59.9714 36.054 60.0002 36.07 60.0146 36.0948C60.0394 36.1291 60.0418 36.1627 60.0218 36.1947C60.0018 36.2266 59.9874 36.2474 59.9778 36.2578C59.9091 36.3265 59.8156 36.404 59.6974 36.4903C59.5791 36.5766 59.4577 36.6565 59.3322 36.73C59.2067 36.8035 59.0885 36.8667 58.9774 36.9186C58.8663 36.9705 58.784 36.9961 58.7297 36.9961C58.6658 36.9961 58.5819 36.9761 58.4788 36.937C58.3757 36.8978 58.2654 36.8483 58.1504 36.7892C58.0345 36.73 57.921 36.6685 57.8108 36.6046C57.6997 36.5407 57.6078 36.4863 57.5335 36.4416Z" fill="#323232"/>
<path d="M18.5342 55.7335L17.7024 56.5054C17.8079 56.8027 17.9397 57.0776 18.0987 57.3317L17.7024 57.8263L17.0488 57.0983L16.316 57.8263C15.7351 57.5011 15.0951 57.2238 14.3959 56.9928C13.6959 56.7627 12.9376 56.5997 12.1193 56.5046C11.9739 56.9913 11.7957 57.4315 11.5848 57.8263L10.1001 56.4455C9.5983 56.4455 9.09009 56.5102 8.5755 56.6397C8.4037 56.6828 8.18635 56.7547 7.92186 56.8562L8.19914 57.3317L7.8028 57.8263L7.12999 57.0592C6.90545 57.1255 6.66494 57.2142 6.40764 57.3261C6.15034 57.4387 5.929 57.5474 5.74441 57.6529L5.16988 57.3708C5.59179 57.0152 6.08721 56.6868 6.65455 56.3856C5.9282 55.2637 5.43997 53.8765 5.18986 52.2264C5.11075 51.6455 5.0708 51.0518 5.0708 50.4437C5.0708 48.5555 5.43997 46.6801 6.1799 44.8183L8.93188 47.2746C8.32459 48.0665 7.85954 48.9711 7.53592 49.9883C7.2123 51.0055 7.05088 52.0418 7.05088 53.0982C7.05088 54.1546 7.21549 55.1119 7.54551 55.9701C7.77004 55.8382 7.94823 55.7391 8.08008 55.6728C8.50199 55.4619 8.86556 55.3228 9.1692 55.2573C9.57833 54.479 9.92192 53.5121 10.1984 52.3567C10.4757 51.202 10.6139 50.0242 10.6139 48.8224C10.6139 48.2023 10.574 47.5983 10.4948 47.0109C10.4157 46.4236 10.2839 45.8395 10.0985 45.2586L10.4549 45.0404C10.9959 45.8723 11.4649 46.9606 11.8605 48.307C12.2168 49.5216 12.4478 50.729 12.5532 51.93C12.5932 52.3655 12.6124 52.7882 12.6124 53.1973C12.6124 53.3955 12.6092 53.5769 12.6028 53.7415C12.5956 53.9069 12.566 54.2337 12.5133 54.7211C13.266 54.7211 13.8597 54.7403 14.2952 54.777C14.7307 54.8146 15.2261 54.8929 15.7799 55.0128C15.6344 54.7347 15.5226 54.4894 15.4435 54.2776C15.179 53.6152 15.0048 53.0119 14.9185 52.4685C14.8322 51.9252 14.7762 51.4418 14.7499 51.0175C14.7235 50.594 14.7099 50.196 14.7099 49.8252C14.7099 48.7521 14.8154 47.7381 15.0263 46.784C15.1973 46.0153 15.4155 45.3593 15.68 44.8159L18.432 47.2722C17.9038 47.9459 17.5042 48.7409 17.2342 49.659C16.9633 50.5772 16.8282 51.5177 16.8282 52.4813C16.8282 53.4985 16.9561 54.4287 17.2134 55.2741C17.4835 55.3404 17.7176 55.4099 17.9166 55.4826C18.1179 55.5585 18.3225 55.6416 18.5342 55.7335Z" fill="#E8B03F"/>
<path d="M32.7088 55.2493L30.5905 57.6337C30.0887 56.8786 29.7163 56.0332 29.4718 55.0983C29.2273 54.1634 29.1058 53.1526 29.1058 52.0658C29.1058 51.5225 29.1386 50.9495 29.2049 50.3462C29.2704 49.7429 29.3631 49.1165 29.4822 48.4668C28.453 49.2987 27.733 49.9851 27.3239 50.526C27.0203 50.9352 26.8021 51.3842 26.6703 51.8725C26.934 52.7962 27.0666 53.8126 27.0666 54.9217C27.0666 55.6744 27.0075 56.5781 26.8884 57.6337H26.2156C26.2156 56.5118 26.1924 55.6768 26.1461 55.1294C26.0997 54.5821 25.9975 54.0699 25.8392 53.5952C25.7338 54.1018 25.6547 54.6484 25.6019 55.2349C25.5492 55.8214 25.5228 56.6213 25.5228 57.6345H24.85C24.7573 56.8107 24.7118 56.0532 24.7118 55.3612C24.7118 54.7363 24.7477 54.1881 24.8204 53.7159C24.8931 53.2445 25.0154 52.6955 25.1864 52.0706C24.9754 51.6743 24.6151 51.1565 24.1077 50.5164C23.5995 49.8764 23.18 49.4177 22.8507 49.1405C23.0489 50.1569 23.148 51.0942 23.148 51.9516C23.148 54.0779 22.4944 55.9725 21.1879 57.6337L19.2278 55.2117C20.7588 53.6632 21.5243 51.6711 21.5243 49.2355C21.5243 48.8784 21.5043 48.5076 21.4652 48.124C21.3197 48.0313 21.1487 47.9323 20.9506 47.8268C20.7524 47.7213 20.5414 47.6086 20.3169 47.4888L21.1288 46.4708L20.0996 44.9446L20.575 44.5027C20.8651 44.8495 21.0433 45.0652 21.1096 45.1507C21.1751 45.237 21.3341 45.4712 21.585 45.8539L22.456 44.7256C23.3142 45.452 23.9606 46.1384 24.3961 46.7848C24.8316 47.432 25.3135 48.4085 25.8416 49.715C26.238 48.8512 26.7981 47.9546 27.5245 47.0253C28.1845 46.1743 28.8373 45.4935 29.4846 44.9837L30.3555 45.9338C30.5401 45.6565 30.7023 45.4248 30.8406 45.2386C30.9788 45.0524 31.1538 44.8071 31.3656 44.5035L31.841 44.9837L30.8118 46.4884L31.6237 47.2011C31.3592 47.3338 31.1618 47.4464 31.03 47.5391C30.9636 47.5927 30.8717 47.6518 30.7527 47.7181C30.7391 47.8907 30.7295 48.0825 30.7231 48.295C30.7159 48.5068 30.7135 48.6658 30.7135 48.7721C30.7135 50.0442 30.8949 51.2596 31.2577 52.419C31.6165 53.5769 32.1023 54.5206 32.7088 55.2493Z" fill="#E8B03F"/>
<path d="M44.1332 54.1698L41.9158 57.4555C41.5331 57.5218 41.223 57.5682 40.9857 57.5953C40.7484 57.6217 40.5238 57.6353 40.3129 57.6353C38.32 57.6353 36.8186 57.0927 35.8086 56.006C34.7986 54.9201 34.2943 53.4035 34.2943 51.4577V51.0614C34.0698 51.2196 33.8517 51.4242 33.6407 51.6751C33.5744 51.7542 33.4889 51.8669 33.3834 52.0115L32.8289 51.6951C33.1852 51.0614 33.7062 50.4741 34.3926 49.9331C34.4454 49.4577 34.5413 49.0062 34.6795 48.5771C34.8177 48.148 35.0854 47.4984 35.481 46.6266C35.1773 46.4556 34.8873 46.2838 34.61 46.112C34.3327 45.941 33.9499 45.6901 33.4617 45.3593L33.8772 44.9038C34.4709 45.2202 35.1773 45.4584 35.9955 45.6166L36.5701 44.8247L37.0455 45.2011L36.7091 45.7157C37.2237 45.7556 37.6856 45.7748 38.0947 45.7748C38.8994 45.7748 39.5857 45.6853 40.1539 45.5063C40.7212 45.3273 41.3085 45.0189 41.9158 44.5818L43.8959 46.7648C42.6422 47.504 41.3621 47.8739 40.0548 47.8739C38.8666 47.8739 37.5537 47.5639 36.1146 46.943C35.811 47.7485 35.6591 48.5531 35.6591 49.3586C36.451 49.1604 37.1174 49.0613 37.6584 49.0613C38.6612 49.0613 39.6712 49.4968 40.6877 50.3678L38.6484 52.5061C37.6984 51.5688 36.7475 51.0214 35.7974 50.8624C36.1274 52.2552 36.7347 53.2964 37.6185 53.986C38.4367 54.6228 39.4723 54.9409 40.7268 54.9409C41.2286 54.9409 41.72 54.8865 42.2019 54.7786C42.6845 54.6708 43.3278 54.4678 44.1332 54.1698Z" fill="#E8B03F"/>
<path d="M55.101 54.9407L52.4481 57.7135C52.4481 55.8924 52.2308 54.2224 51.7945 52.705C51.4245 51.4113 50.8372 50.0912 50.0325 48.7456C50.0325 50.2103 49.7321 51.6909 49.132 53.1876C48.5311 54.685 47.6633 56.2248 46.5286 57.8078L44.3704 54.9775C45.5586 54.041 46.5678 52.9391 47.3996 51.6726C48.3497 50.2215 48.8907 48.7767 49.0233 47.3384C48.7988 47.0747 48.591 46.8406 48.4 46.6361C48.2083 46.4315 47.9414 46.1774 47.5986 45.8738L48.0141 45.28L48.8851 45.8546L48.6477 45.28L49.3014 44.7998C49.4332 45.0771 49.5755 45.3711 49.7273 45.6812C49.8791 45.9912 49.955 46.2981 49.955 46.6017C52.8308 48.9525 54.5464 51.7317 55.101 54.9407Z" fill="#E8B03F"/>
<path d="M66.4053 53.7502C66.4053 54.63 66.0953 55.4114 65.4752 56.0938C64.8544 56.7762 63.9179 57.3084 62.6641 57.6888L59.5757 54.8425C59.4703 55.318 59.3113 55.7926 59.1003 56.268C58.8894 56.7435 58.6313 57.199 58.3284 57.6344L55.9919 54.9368C56.5193 54.4494 56.9748 53.8493 57.3583 53.1373C57.8338 52.2535 58.0711 51.3834 58.0711 50.5268C57.8602 50.5268 57.5629 50.6195 57.1802 50.804C57.0611 50.8568 56.8893 50.9495 56.6656 51.0813L56.4282 50.3885C56.7055 50.2303 57.0619 50.0657 57.4974 49.8939C57.6428 49.8412 57.8338 49.7748 58.0719 49.6957C58.1246 49.2994 58.1574 49.0621 58.171 48.983C58.171 48.7848 58.171 48.6466 58.171 48.5675C58.171 47.5383 57.9664 46.5083 57.5573 45.4791C57.4255 45.1363 57.2137 44.7136 56.9237 44.2118L57.3591 43.8154C57.9528 44.5282 58.4611 45.3728 58.8838 46.3493C59.161 46.9957 59.392 47.7221 59.5765 48.5267C59.6293 48.8304 59.6884 49.134 59.7547 49.4376C59.8602 49.4376 60.0616 49.4376 60.3588 49.4376C60.6561 49.4376 60.8439 49.4376 60.923 49.4376C61.0812 49.4376 61.2098 49.4376 61.3089 49.4376C61.408 49.4376 61.6086 49.464 61.913 49.5168C63.3777 49.7533 64.5132 50.2783 65.3186 51.0917C66.0426 51.8268 66.4053 52.713 66.4053 53.7502ZM64.2471 53.0774C64.2471 52.4581 63.9994 51.9107 63.5047 51.4361C63.0101 50.9615 62.3333 50.6259 61.4751 50.4277C61.1451 50.3486 60.8447 50.3086 60.5746 50.3086C60.3037 50.3086 60.0959 50.3086 59.9513 50.3086V50.7433C59.9513 51.6135 59.9417 52.2727 59.9217 52.721C59.9018 53.1693 59.8458 53.6239 59.7531 54.0858C60.1095 54.3367 60.4891 54.5173 60.8918 54.63C61.2945 54.7418 61.6669 54.7978 62.0105 54.7978C62.7097 54.7978 63.2578 54.6396 63.6534 54.3231C64.0497 54.0067 64.2471 53.5912 64.2471 53.0774Z" fill="#E8B03F"/>
</svg>
